%TF.GenerationSoftware,KiCad,Pcbnew,(5.1.9-0-10_14)*%
%TF.CreationDate,2021-04-20T21:20:53+01:00*%
%TF.ProjectId,pi-hat,70692d68-6174-42e6-9b69-6361645f7063,rev?*%
%TF.SameCoordinates,Original*%
%TF.FileFunction,Legend,Bot*%
%TF.FilePolarity,Positive*%
%FSLAX46Y46*%
G04 Gerber Fmt 4.6, Leading zero omitted, Abs format (unit mm)*
G04 Created by KiCad (PCBNEW (5.1.9-0-10_14)) date 2021-04-20 21:20:53*
%MOMM*%
%LPD*%
G01*
G04 APERTURE LIST*
%ADD10C,0.100000*%
G04 APERTURE END LIST*
D10*
X20253685Y-34311085D02*
X20253685Y-34846800D01*
X20289400Y-34953942D01*
X20360828Y-35025371D01*
X20467971Y-35061085D01*
X20539400Y-35061085D01*
X19539400Y-35061085D02*
X19896542Y-35061085D01*
X19896542Y-34311085D01*
X18860828Y-34989657D02*
X18896542Y-35025371D01*
X19003685Y-35061085D01*
X19075114Y-35061085D01*
X19182257Y-35025371D01*
X19253685Y-34953942D01*
X19289400Y-34882514D01*
X19325114Y-34739657D01*
X19325114Y-34632514D01*
X19289400Y-34489657D01*
X19253685Y-34418228D01*
X19182257Y-34346800D01*
X19075114Y-34311085D01*
X19003685Y-34311085D01*
X18896542Y-34346800D01*
X18860828Y-34382514D01*
X18325114Y-34311085D02*
X18325114Y-34846800D01*
X18360828Y-34953942D01*
X18432257Y-35025371D01*
X18539400Y-35061085D01*
X18610828Y-35061085D01*
X17610828Y-35061085D02*
X17967971Y-35061085D01*
X17967971Y-34311085D01*
X16932257Y-34989657D02*
X16967971Y-35025371D01*
X17075114Y-35061085D01*
X17146542Y-35061085D01*
X17253685Y-35025371D01*
X17325114Y-34953942D01*
X17360828Y-34882514D01*
X17396542Y-34739657D01*
X17396542Y-34632514D01*
X17360828Y-34489657D01*
X17325114Y-34418228D01*
X17253685Y-34346800D01*
X17146542Y-34311085D01*
X17075114Y-34311085D01*
X16967971Y-34346800D01*
X16932257Y-34382514D01*
X16396542Y-34311085D02*
X16396542Y-34846800D01*
X16432257Y-34953942D01*
X16503685Y-35025371D01*
X16610828Y-35061085D01*
X16682257Y-35061085D01*
X15682257Y-35061085D02*
X16039400Y-35061085D01*
X16039400Y-34311085D01*
X15003685Y-34989657D02*
X15039400Y-35025371D01*
X15146542Y-35061085D01*
X15217971Y-35061085D01*
X15325114Y-35025371D01*
X15396542Y-34953942D01*
X15432257Y-34882514D01*
X15467971Y-34739657D01*
X15467971Y-34632514D01*
X15432257Y-34489657D01*
X15396542Y-34418228D01*
X15325114Y-34346800D01*
X15217971Y-34311085D01*
X15146542Y-34311085D01*
X15039400Y-34346800D01*
X15003685Y-34382514D01*
X14467971Y-34311085D02*
X14467971Y-34846800D01*
X14503685Y-34953942D01*
X14575114Y-35025371D01*
X14682257Y-35061085D01*
X14753685Y-35061085D01*
X13753685Y-35061085D02*
X14110828Y-35061085D01*
X14110828Y-34311085D01*
X13075114Y-34989657D02*
X13110828Y-35025371D01*
X13217971Y-35061085D01*
X13289400Y-35061085D01*
X13396542Y-35025371D01*
X13467971Y-34953942D01*
X13503685Y-34882514D01*
X13539400Y-34739657D01*
X13539400Y-34632514D01*
X13503685Y-34489657D01*
X13467971Y-34418228D01*
X13396542Y-34346800D01*
X13289400Y-34311085D01*
X13217971Y-34311085D01*
X13110828Y-34346800D01*
X13075114Y-34382514D01*
M02*
