%TF.GenerationSoftware,KiCad,Pcbnew,(5.1.9-0-10_14)*%
%TF.CreationDate,2021-04-20T21:20:53+01:00*%
%TF.ProjectId,pi-hat,70692d68-6174-42e6-9b69-6361645f7063,rev?*%
%TF.SameCoordinates,Original*%
%TF.FileFunction,Copper,L2,Bot*%
%TF.FilePolarity,Positive*%
%FSLAX46Y46*%
G04 Gerber Fmt 4.6, Leading zero omitted, Abs format (unit mm)*
G04 Created by KiCad (PCBNEW (5.1.9-0-10_14)) date 2021-04-20 21:20:53*
%MOMM*%
%LPD*%
G01*
G04 APERTURE LIST*
%TA.AperFunction,ComponentPad*%
%ADD10O,1.700000X1.700000*%
%TD*%
%TA.AperFunction,ComponentPad*%
%ADD11R,1.700000X1.700000*%
%TD*%
%TA.AperFunction,ComponentPad*%
%ADD12C,2.400000*%
%TD*%
%TA.AperFunction,ViaPad*%
%ADD13C,0.800000*%
%TD*%
%TA.AperFunction,Conductor*%
%ADD14C,0.254000*%
%TD*%
%TA.AperFunction,Conductor*%
%ADD15C,0.100000*%
%TD*%
G04 APERTURE END LIST*
D10*
%TO.P,Pi 17-30,8*%
%TO.N,GND*%
X51536600Y-32258000D03*
%TO.P,Pi 17-30,7*%
%TO.N,Net-(J2-Pad7)*%
X48996600Y-32258000D03*
%TO.P,Pi 17-30,9*%
%TO.N,Net-(J2-Pad9)*%
X51536600Y-29718000D03*
%TO.P,Pi 17-30,6*%
%TO.N,Net-(J2-Pad6)*%
X48996600Y-29718000D03*
%TO.P,Pi 17-30,10*%
%TO.N,Net-(J2-Pad10)*%
X51536600Y-27178000D03*
%TO.P,Pi 17-30,5*%
%TO.N,GND*%
X48996600Y-27178000D03*
%TO.P,Pi 17-30,11*%
%TO.N,Net-(J2-Pad11)*%
X51536600Y-24638000D03*
%TO.P,Pi 17-30,4*%
%TO.N,Net-(J2-Pad4)*%
X48996600Y-24638000D03*
%TO.P,Pi 17-30,12*%
%TO.N,Net-(J2-Pad12)*%
X51536600Y-22098000D03*
%TO.P,Pi 17-30,3*%
%TO.N,Net-(J2-Pad3)*%
X48996600Y-22098000D03*
%TO.P,Pi 17-30,13*%
%TO.N,GND*%
X51536600Y-19558000D03*
%TO.P,Pi 17-30,2*%
%TO.N,Net-(J2-Pad2)*%
X48996600Y-19558000D03*
%TO.P,Pi 17-30,14*%
%TO.N,Net-(J2-Pad14)*%
X51536600Y-17018000D03*
D11*
%TO.P,Pi 17-30,1*%
%TO.N,Net-(J2-Pad1)*%
X48996600Y-17018000D03*
%TD*%
D12*
%TO.P,SMA,5*%
%TO.N,GND*%
X20701000Y-22047200D03*
%TO.P,SMA,4*%
X15621000Y-22047200D03*
%TO.P,SMA,3*%
X20701000Y-16967200D03*
%TO.P,SMA,2*%
X15621000Y-16967200D03*
%TO.P,SMA,1*%
%TO.N,Net-(J1-Pad1)*%
X18161000Y-19507200D03*
%TD*%
D13*
%TO.N,GND*%
X31318200Y-27305000D03*
X39100000Y-21851000D03*
X40030400Y-27228800D03*
X40030400Y-17475200D03*
X31292800Y-21666200D03*
X35052000Y-17424400D03*
X15621000Y-19304000D03*
X18161000Y-15265400D03*
X15621000Y-26187400D03*
X20904200Y-26009600D03*
X15671800Y-30530800D03*
X20980400Y-30632400D03*
X37850000Y-19751000D03*
X32639000Y-32893000D03*
X46482000Y-24079200D03*
X46583600Y-19634200D03*
X46456600Y-30937200D03*
X22860000Y-18262600D03*
X22809200Y-20904200D03*
X46550000Y-21601000D03*
X46500000Y-18001000D03*
X46550000Y-27751000D03*
X40300000Y-32851000D03*
X28300000Y-19501000D03*
%TD*%
D14*
%TO.N,GND*%
X54534601Y-34951200D02*
X13359600Y-34951200D01*
X13359600Y-23325180D01*
X14522626Y-23325180D01*
X14642514Y-23610036D01*
X14966210Y-23770899D01*
X15315069Y-23865522D01*
X15675684Y-23890267D01*
X16034198Y-23844185D01*
X16376833Y-23729046D01*
X16599486Y-23610036D01*
X16719374Y-23325180D01*
X19602626Y-23325180D01*
X19722514Y-23610036D01*
X20046210Y-23770899D01*
X20395069Y-23865522D01*
X20755684Y-23890267D01*
X21114198Y-23844185D01*
X21456833Y-23729046D01*
X21679486Y-23610036D01*
X21799374Y-23325180D01*
X20701000Y-22226805D01*
X19602626Y-23325180D01*
X16719374Y-23325180D01*
X15621000Y-22226805D01*
X14522626Y-23325180D01*
X13359600Y-23325180D01*
X13359600Y-22101884D01*
X13777933Y-22101884D01*
X13824015Y-22460398D01*
X13939154Y-22803033D01*
X14058164Y-23025686D01*
X14343020Y-23145574D01*
X15441395Y-22047200D01*
X14343020Y-20948826D01*
X14058164Y-21068714D01*
X13897301Y-21392410D01*
X13802678Y-21741269D01*
X13777933Y-22101884D01*
X13359600Y-22101884D01*
X13359600Y-18245180D01*
X14522626Y-18245180D01*
X14642514Y-18530036D01*
X14966210Y-18690899D01*
X15315069Y-18785522D01*
X15675684Y-18810267D01*
X16034198Y-18764185D01*
X16376833Y-18649046D01*
X16599486Y-18530036D01*
X16719373Y-18245181D01*
X16773655Y-18299463D01*
X16735662Y-18337456D01*
X16534844Y-18638001D01*
X16396518Y-18971950D01*
X16326000Y-19326468D01*
X16326000Y-19687932D01*
X16396518Y-20042450D01*
X16534844Y-20376399D01*
X16735662Y-20676944D01*
X16773655Y-20714937D01*
X16719373Y-20769219D01*
X16599486Y-20484364D01*
X16275790Y-20323501D01*
X15926931Y-20228878D01*
X15566316Y-20204133D01*
X15207802Y-20250215D01*
X14865167Y-20365354D01*
X14642514Y-20484364D01*
X14522626Y-20769220D01*
X15621000Y-21867595D01*
X15635142Y-21853452D01*
X15814748Y-22033058D01*
X15800605Y-22047200D01*
X16898980Y-23145574D01*
X17183836Y-23025686D01*
X17344699Y-22701990D01*
X17439322Y-22353131D01*
X17464067Y-21992516D01*
X17417985Y-21634002D01*
X17302846Y-21291367D01*
X17183836Y-21068714D01*
X16898981Y-20948827D01*
X16953263Y-20894545D01*
X16991256Y-20932538D01*
X17291801Y-21133356D01*
X17625750Y-21271682D01*
X17980268Y-21342200D01*
X18341732Y-21342200D01*
X18696250Y-21271682D01*
X19030199Y-21133356D01*
X19330744Y-20932538D01*
X19368737Y-20894545D01*
X19423019Y-20948827D01*
X19138164Y-21068714D01*
X18977301Y-21392410D01*
X18882678Y-21741269D01*
X18857933Y-22101884D01*
X18904015Y-22460398D01*
X19019154Y-22803033D01*
X19138164Y-23025686D01*
X19423020Y-23145574D01*
X20521395Y-22047200D01*
X20880605Y-22047200D01*
X21978980Y-23145574D01*
X22263836Y-23025686D01*
X22424699Y-22701990D01*
X22519322Y-22353131D01*
X22544067Y-21992516D01*
X22497985Y-21634002D01*
X22382846Y-21291367D01*
X22263836Y-21068714D01*
X21978980Y-20948826D01*
X20880605Y-22047200D01*
X20521395Y-22047200D01*
X20507252Y-22033058D01*
X20686858Y-21853452D01*
X20701000Y-21867595D01*
X21799374Y-20769220D01*
X21679486Y-20484364D01*
X21355790Y-20323501D01*
X21006931Y-20228878D01*
X20646316Y-20204133D01*
X20287802Y-20250215D01*
X19945167Y-20365354D01*
X19722514Y-20484364D01*
X19602627Y-20769219D01*
X19548345Y-20714937D01*
X19586338Y-20676944D01*
X19787156Y-20376399D01*
X19925482Y-20042450D01*
X19996000Y-19687932D01*
X19996000Y-19326468D01*
X19925482Y-18971950D01*
X19787156Y-18638001D01*
X19586338Y-18337456D01*
X19548345Y-18299463D01*
X19602627Y-18245181D01*
X19722514Y-18530036D01*
X20046210Y-18690899D01*
X20395069Y-18785522D01*
X20755684Y-18810267D01*
X21114198Y-18764185D01*
X21456833Y-18649046D01*
X21679486Y-18530036D01*
X21799374Y-18245180D01*
X20701000Y-17146805D01*
X20686858Y-17160948D01*
X20507252Y-16981342D01*
X20521395Y-16967200D01*
X20880605Y-16967200D01*
X21978980Y-18065574D01*
X22263836Y-17945686D01*
X22424699Y-17621990D01*
X22519322Y-17273131D01*
X22544067Y-16912516D01*
X22497985Y-16554002D01*
X22382846Y-16211367D01*
X22359666Y-16168000D01*
X47508528Y-16168000D01*
X47508528Y-17868000D01*
X47520788Y-17992482D01*
X47557098Y-18112180D01*
X47616063Y-18222494D01*
X47695415Y-18319185D01*
X47792106Y-18398537D01*
X47902420Y-18457502D01*
X47974980Y-18479513D01*
X47843125Y-18611368D01*
X47680610Y-18854589D01*
X47568668Y-19124842D01*
X47511600Y-19411740D01*
X47511600Y-19704260D01*
X47568668Y-19991158D01*
X47680610Y-20261411D01*
X47843125Y-20504632D01*
X48049968Y-20711475D01*
X48224360Y-20828000D01*
X48049968Y-20944525D01*
X47843125Y-21151368D01*
X47680610Y-21394589D01*
X47568668Y-21664842D01*
X47511600Y-21951740D01*
X47511600Y-22244260D01*
X47568668Y-22531158D01*
X47680610Y-22801411D01*
X47843125Y-23044632D01*
X48049968Y-23251475D01*
X48224360Y-23368000D01*
X48049968Y-23484525D01*
X47843125Y-23691368D01*
X47680610Y-23934589D01*
X47568668Y-24204842D01*
X47511600Y-24491740D01*
X47511600Y-24784260D01*
X47568668Y-25071158D01*
X47680610Y-25341411D01*
X47843125Y-25584632D01*
X48049968Y-25791475D01*
X48232134Y-25913195D01*
X48115245Y-25982822D01*
X47899012Y-26177731D01*
X47724959Y-26411080D01*
X47599775Y-26673901D01*
X47555124Y-26821110D01*
X47676445Y-27051000D01*
X48869600Y-27051000D01*
X48869600Y-27031000D01*
X49123600Y-27031000D01*
X49123600Y-27051000D01*
X49143600Y-27051000D01*
X49143600Y-27305000D01*
X49123600Y-27305000D01*
X49123600Y-27325000D01*
X48869600Y-27325000D01*
X48869600Y-27305000D01*
X47676445Y-27305000D01*
X47555124Y-27534890D01*
X47599775Y-27682099D01*
X47724959Y-27944920D01*
X47899012Y-28178269D01*
X48115245Y-28373178D01*
X48232134Y-28442805D01*
X48049968Y-28564525D01*
X47843125Y-28771368D01*
X47680610Y-29014589D01*
X47568668Y-29284842D01*
X47511600Y-29571740D01*
X47511600Y-29864260D01*
X47568668Y-30151158D01*
X47680610Y-30421411D01*
X47843125Y-30664632D01*
X48049968Y-30871475D01*
X48224360Y-30988000D01*
X48049968Y-31104525D01*
X47843125Y-31311368D01*
X47680610Y-31554589D01*
X47568668Y-31824842D01*
X47511600Y-32111740D01*
X47511600Y-32404260D01*
X47568668Y-32691158D01*
X47680610Y-32961411D01*
X47843125Y-33204632D01*
X48049968Y-33411475D01*
X48293189Y-33573990D01*
X48563442Y-33685932D01*
X48850340Y-33743000D01*
X49142860Y-33743000D01*
X49429758Y-33685932D01*
X49700011Y-33573990D01*
X49943232Y-33411475D01*
X50150075Y-33204632D01*
X50267700Y-33028594D01*
X50439012Y-33258269D01*
X50655245Y-33453178D01*
X50905348Y-33602157D01*
X51179709Y-33699481D01*
X51409600Y-33578814D01*
X51409600Y-32385000D01*
X51663600Y-32385000D01*
X51663600Y-33578814D01*
X51893491Y-33699481D01*
X52167852Y-33602157D01*
X52417955Y-33453178D01*
X52634188Y-33258269D01*
X52808241Y-33024920D01*
X52933425Y-32762099D01*
X52978076Y-32614890D01*
X52856755Y-32385000D01*
X51663600Y-32385000D01*
X51409600Y-32385000D01*
X51389600Y-32385000D01*
X51389600Y-32131000D01*
X51409600Y-32131000D01*
X51409600Y-32111000D01*
X51663600Y-32111000D01*
X51663600Y-32131000D01*
X52856755Y-32131000D01*
X52978076Y-31901110D01*
X52933425Y-31753901D01*
X52808241Y-31491080D01*
X52634188Y-31257731D01*
X52417955Y-31062822D01*
X52301066Y-30993195D01*
X52483232Y-30871475D01*
X52690075Y-30664632D01*
X52852590Y-30421411D01*
X52964532Y-30151158D01*
X53021600Y-29864260D01*
X53021600Y-29571740D01*
X52964532Y-29284842D01*
X52852590Y-29014589D01*
X52690075Y-28771368D01*
X52483232Y-28564525D01*
X52308840Y-28448000D01*
X52483232Y-28331475D01*
X52690075Y-28124632D01*
X52852590Y-27881411D01*
X52964532Y-27611158D01*
X53021600Y-27324260D01*
X53021600Y-27031740D01*
X52964532Y-26744842D01*
X52852590Y-26474589D01*
X52690075Y-26231368D01*
X52483232Y-26024525D01*
X52308840Y-25908000D01*
X52483232Y-25791475D01*
X52690075Y-25584632D01*
X52852590Y-25341411D01*
X52964532Y-25071158D01*
X53021600Y-24784260D01*
X53021600Y-24491740D01*
X52964532Y-24204842D01*
X52852590Y-23934589D01*
X52690075Y-23691368D01*
X52483232Y-23484525D01*
X52308840Y-23368000D01*
X52483232Y-23251475D01*
X52690075Y-23044632D01*
X52852590Y-22801411D01*
X52964532Y-22531158D01*
X53021600Y-22244260D01*
X53021600Y-21951740D01*
X52964532Y-21664842D01*
X52852590Y-21394589D01*
X52690075Y-21151368D01*
X52483232Y-20944525D01*
X52301066Y-20822805D01*
X52417955Y-20753178D01*
X52634188Y-20558269D01*
X52808241Y-20324920D01*
X52933425Y-20062099D01*
X52978076Y-19914890D01*
X52856755Y-19685000D01*
X51663600Y-19685000D01*
X51663600Y-19705000D01*
X51409600Y-19705000D01*
X51409600Y-19685000D01*
X51389600Y-19685000D01*
X51389600Y-19431000D01*
X51409600Y-19431000D01*
X51409600Y-19411000D01*
X51663600Y-19411000D01*
X51663600Y-19431000D01*
X52856755Y-19431000D01*
X52978076Y-19201110D01*
X52933425Y-19053901D01*
X52808241Y-18791080D01*
X52634188Y-18557731D01*
X52417955Y-18362822D01*
X52301066Y-18293195D01*
X52483232Y-18171475D01*
X52690075Y-17964632D01*
X52852590Y-17721411D01*
X52964532Y-17451158D01*
X53021600Y-17164260D01*
X53021600Y-16871740D01*
X52964532Y-16584842D01*
X52852590Y-16314589D01*
X52690075Y-16071368D01*
X52483232Y-15864525D01*
X52240011Y-15702010D01*
X51969758Y-15590068D01*
X51682860Y-15533000D01*
X51390340Y-15533000D01*
X51103442Y-15590068D01*
X50833189Y-15702010D01*
X50589968Y-15864525D01*
X50458113Y-15996380D01*
X50436102Y-15923820D01*
X50377137Y-15813506D01*
X50297785Y-15716815D01*
X50201094Y-15637463D01*
X50090780Y-15578498D01*
X49971082Y-15542188D01*
X49846600Y-15529928D01*
X48146600Y-15529928D01*
X48022118Y-15542188D01*
X47902420Y-15578498D01*
X47792106Y-15637463D01*
X47695415Y-15716815D01*
X47616063Y-15813506D01*
X47557098Y-15923820D01*
X47520788Y-16043518D01*
X47508528Y-16168000D01*
X22359666Y-16168000D01*
X22263836Y-15988714D01*
X21978980Y-15868826D01*
X20880605Y-16967200D01*
X20521395Y-16967200D01*
X19423020Y-15868826D01*
X19138164Y-15988714D01*
X18977301Y-16312410D01*
X18882678Y-16661269D01*
X18857933Y-17021884D01*
X18904015Y-17380398D01*
X19019154Y-17723033D01*
X19138164Y-17945686D01*
X19423019Y-18065573D01*
X19368737Y-18119855D01*
X19330744Y-18081862D01*
X19030199Y-17881044D01*
X18696250Y-17742718D01*
X18341732Y-17672200D01*
X17980268Y-17672200D01*
X17625750Y-17742718D01*
X17291801Y-17881044D01*
X16991256Y-18081862D01*
X16953263Y-18119855D01*
X16898981Y-18065573D01*
X17183836Y-17945686D01*
X17344699Y-17621990D01*
X17439322Y-17273131D01*
X17464067Y-16912516D01*
X17417985Y-16554002D01*
X17302846Y-16211367D01*
X17183836Y-15988714D01*
X16898980Y-15868826D01*
X15800605Y-16967200D01*
X15814748Y-16981342D01*
X15635142Y-17160948D01*
X15621000Y-17146805D01*
X14522626Y-18245180D01*
X13359600Y-18245180D01*
X13359600Y-17021884D01*
X13777933Y-17021884D01*
X13824015Y-17380398D01*
X13939154Y-17723033D01*
X14058164Y-17945686D01*
X14343020Y-18065574D01*
X15441395Y-16967200D01*
X14343020Y-15868826D01*
X14058164Y-15988714D01*
X13897301Y-16312410D01*
X13802678Y-16661269D01*
X13777933Y-17021884D01*
X13359600Y-17021884D01*
X13359600Y-15689220D01*
X14522626Y-15689220D01*
X15621000Y-16787595D01*
X16719374Y-15689220D01*
X19602626Y-15689220D01*
X20701000Y-16787595D01*
X21799374Y-15689220D01*
X21679486Y-15404364D01*
X21355790Y-15243501D01*
X21006931Y-15148878D01*
X20646316Y-15124133D01*
X20287802Y-15170215D01*
X19945167Y-15285354D01*
X19722514Y-15404364D01*
X19602626Y-15689220D01*
X16719374Y-15689220D01*
X16599486Y-15404364D01*
X16275790Y-15243501D01*
X15926931Y-15148878D01*
X15566316Y-15124133D01*
X15207802Y-15170215D01*
X14865167Y-15285354D01*
X14642514Y-15404364D01*
X14522626Y-15689220D01*
X13359600Y-15689220D01*
X13359600Y-14274000D01*
X54534600Y-14274000D01*
X54534601Y-34951200D01*
%TA.AperFunction,Conductor*%
D15*
G36*
X54534601Y-34951200D02*
G01*
X13359600Y-34951200D01*
X13359600Y-23325180D01*
X14522626Y-23325180D01*
X14642514Y-23610036D01*
X14966210Y-23770899D01*
X15315069Y-23865522D01*
X15675684Y-23890267D01*
X16034198Y-23844185D01*
X16376833Y-23729046D01*
X16599486Y-23610036D01*
X16719374Y-23325180D01*
X19602626Y-23325180D01*
X19722514Y-23610036D01*
X20046210Y-23770899D01*
X20395069Y-23865522D01*
X20755684Y-23890267D01*
X21114198Y-23844185D01*
X21456833Y-23729046D01*
X21679486Y-23610036D01*
X21799374Y-23325180D01*
X20701000Y-22226805D01*
X19602626Y-23325180D01*
X16719374Y-23325180D01*
X15621000Y-22226805D01*
X14522626Y-23325180D01*
X13359600Y-23325180D01*
X13359600Y-22101884D01*
X13777933Y-22101884D01*
X13824015Y-22460398D01*
X13939154Y-22803033D01*
X14058164Y-23025686D01*
X14343020Y-23145574D01*
X15441395Y-22047200D01*
X14343020Y-20948826D01*
X14058164Y-21068714D01*
X13897301Y-21392410D01*
X13802678Y-21741269D01*
X13777933Y-22101884D01*
X13359600Y-22101884D01*
X13359600Y-18245180D01*
X14522626Y-18245180D01*
X14642514Y-18530036D01*
X14966210Y-18690899D01*
X15315069Y-18785522D01*
X15675684Y-18810267D01*
X16034198Y-18764185D01*
X16376833Y-18649046D01*
X16599486Y-18530036D01*
X16719373Y-18245181D01*
X16773655Y-18299463D01*
X16735662Y-18337456D01*
X16534844Y-18638001D01*
X16396518Y-18971950D01*
X16326000Y-19326468D01*
X16326000Y-19687932D01*
X16396518Y-20042450D01*
X16534844Y-20376399D01*
X16735662Y-20676944D01*
X16773655Y-20714937D01*
X16719373Y-20769219D01*
X16599486Y-20484364D01*
X16275790Y-20323501D01*
X15926931Y-20228878D01*
X15566316Y-20204133D01*
X15207802Y-20250215D01*
X14865167Y-20365354D01*
X14642514Y-20484364D01*
X14522626Y-20769220D01*
X15621000Y-21867595D01*
X15635142Y-21853452D01*
X15814748Y-22033058D01*
X15800605Y-22047200D01*
X16898980Y-23145574D01*
X17183836Y-23025686D01*
X17344699Y-22701990D01*
X17439322Y-22353131D01*
X17464067Y-21992516D01*
X17417985Y-21634002D01*
X17302846Y-21291367D01*
X17183836Y-21068714D01*
X16898981Y-20948827D01*
X16953263Y-20894545D01*
X16991256Y-20932538D01*
X17291801Y-21133356D01*
X17625750Y-21271682D01*
X17980268Y-21342200D01*
X18341732Y-21342200D01*
X18696250Y-21271682D01*
X19030199Y-21133356D01*
X19330744Y-20932538D01*
X19368737Y-20894545D01*
X19423019Y-20948827D01*
X19138164Y-21068714D01*
X18977301Y-21392410D01*
X18882678Y-21741269D01*
X18857933Y-22101884D01*
X18904015Y-22460398D01*
X19019154Y-22803033D01*
X19138164Y-23025686D01*
X19423020Y-23145574D01*
X20521395Y-22047200D01*
X20880605Y-22047200D01*
X21978980Y-23145574D01*
X22263836Y-23025686D01*
X22424699Y-22701990D01*
X22519322Y-22353131D01*
X22544067Y-21992516D01*
X22497985Y-21634002D01*
X22382846Y-21291367D01*
X22263836Y-21068714D01*
X21978980Y-20948826D01*
X20880605Y-22047200D01*
X20521395Y-22047200D01*
X20507252Y-22033058D01*
X20686858Y-21853452D01*
X20701000Y-21867595D01*
X21799374Y-20769220D01*
X21679486Y-20484364D01*
X21355790Y-20323501D01*
X21006931Y-20228878D01*
X20646316Y-20204133D01*
X20287802Y-20250215D01*
X19945167Y-20365354D01*
X19722514Y-20484364D01*
X19602627Y-20769219D01*
X19548345Y-20714937D01*
X19586338Y-20676944D01*
X19787156Y-20376399D01*
X19925482Y-20042450D01*
X19996000Y-19687932D01*
X19996000Y-19326468D01*
X19925482Y-18971950D01*
X19787156Y-18638001D01*
X19586338Y-18337456D01*
X19548345Y-18299463D01*
X19602627Y-18245181D01*
X19722514Y-18530036D01*
X20046210Y-18690899D01*
X20395069Y-18785522D01*
X20755684Y-18810267D01*
X21114198Y-18764185D01*
X21456833Y-18649046D01*
X21679486Y-18530036D01*
X21799374Y-18245180D01*
X20701000Y-17146805D01*
X20686858Y-17160948D01*
X20507252Y-16981342D01*
X20521395Y-16967200D01*
X20880605Y-16967200D01*
X21978980Y-18065574D01*
X22263836Y-17945686D01*
X22424699Y-17621990D01*
X22519322Y-17273131D01*
X22544067Y-16912516D01*
X22497985Y-16554002D01*
X22382846Y-16211367D01*
X22359666Y-16168000D01*
X47508528Y-16168000D01*
X47508528Y-17868000D01*
X47520788Y-17992482D01*
X47557098Y-18112180D01*
X47616063Y-18222494D01*
X47695415Y-18319185D01*
X47792106Y-18398537D01*
X47902420Y-18457502D01*
X47974980Y-18479513D01*
X47843125Y-18611368D01*
X47680610Y-18854589D01*
X47568668Y-19124842D01*
X47511600Y-19411740D01*
X47511600Y-19704260D01*
X47568668Y-19991158D01*
X47680610Y-20261411D01*
X47843125Y-20504632D01*
X48049968Y-20711475D01*
X48224360Y-20828000D01*
X48049968Y-20944525D01*
X47843125Y-21151368D01*
X47680610Y-21394589D01*
X47568668Y-21664842D01*
X47511600Y-21951740D01*
X47511600Y-22244260D01*
X47568668Y-22531158D01*
X47680610Y-22801411D01*
X47843125Y-23044632D01*
X48049968Y-23251475D01*
X48224360Y-23368000D01*
X48049968Y-23484525D01*
X47843125Y-23691368D01*
X47680610Y-23934589D01*
X47568668Y-24204842D01*
X47511600Y-24491740D01*
X47511600Y-24784260D01*
X47568668Y-25071158D01*
X47680610Y-25341411D01*
X47843125Y-25584632D01*
X48049968Y-25791475D01*
X48232134Y-25913195D01*
X48115245Y-25982822D01*
X47899012Y-26177731D01*
X47724959Y-26411080D01*
X47599775Y-26673901D01*
X47555124Y-26821110D01*
X47676445Y-27051000D01*
X48869600Y-27051000D01*
X48869600Y-27031000D01*
X49123600Y-27031000D01*
X49123600Y-27051000D01*
X49143600Y-27051000D01*
X49143600Y-27305000D01*
X49123600Y-27305000D01*
X49123600Y-27325000D01*
X48869600Y-27325000D01*
X48869600Y-27305000D01*
X47676445Y-27305000D01*
X47555124Y-27534890D01*
X47599775Y-27682099D01*
X47724959Y-27944920D01*
X47899012Y-28178269D01*
X48115245Y-28373178D01*
X48232134Y-28442805D01*
X48049968Y-28564525D01*
X47843125Y-28771368D01*
X47680610Y-29014589D01*
X47568668Y-29284842D01*
X47511600Y-29571740D01*
X47511600Y-29864260D01*
X47568668Y-30151158D01*
X47680610Y-30421411D01*
X47843125Y-30664632D01*
X48049968Y-30871475D01*
X48224360Y-30988000D01*
X48049968Y-31104525D01*
X47843125Y-31311368D01*
X47680610Y-31554589D01*
X47568668Y-31824842D01*
X47511600Y-32111740D01*
X47511600Y-32404260D01*
X47568668Y-32691158D01*
X47680610Y-32961411D01*
X47843125Y-33204632D01*
X48049968Y-33411475D01*
X48293189Y-33573990D01*
X48563442Y-33685932D01*
X48850340Y-33743000D01*
X49142860Y-33743000D01*
X49429758Y-33685932D01*
X49700011Y-33573990D01*
X49943232Y-33411475D01*
X50150075Y-33204632D01*
X50267700Y-33028594D01*
X50439012Y-33258269D01*
X50655245Y-33453178D01*
X50905348Y-33602157D01*
X51179709Y-33699481D01*
X51409600Y-33578814D01*
X51409600Y-32385000D01*
X51663600Y-32385000D01*
X51663600Y-33578814D01*
X51893491Y-33699481D01*
X52167852Y-33602157D01*
X52417955Y-33453178D01*
X52634188Y-33258269D01*
X52808241Y-33024920D01*
X52933425Y-32762099D01*
X52978076Y-32614890D01*
X52856755Y-32385000D01*
X51663600Y-32385000D01*
X51409600Y-32385000D01*
X51389600Y-32385000D01*
X51389600Y-32131000D01*
X51409600Y-32131000D01*
X51409600Y-32111000D01*
X51663600Y-32111000D01*
X51663600Y-32131000D01*
X52856755Y-32131000D01*
X52978076Y-31901110D01*
X52933425Y-31753901D01*
X52808241Y-31491080D01*
X52634188Y-31257731D01*
X52417955Y-31062822D01*
X52301066Y-30993195D01*
X52483232Y-30871475D01*
X52690075Y-30664632D01*
X52852590Y-30421411D01*
X52964532Y-30151158D01*
X53021600Y-29864260D01*
X53021600Y-29571740D01*
X52964532Y-29284842D01*
X52852590Y-29014589D01*
X52690075Y-28771368D01*
X52483232Y-28564525D01*
X52308840Y-28448000D01*
X52483232Y-28331475D01*
X52690075Y-28124632D01*
X52852590Y-27881411D01*
X52964532Y-27611158D01*
X53021600Y-27324260D01*
X53021600Y-27031740D01*
X52964532Y-26744842D01*
X52852590Y-26474589D01*
X52690075Y-26231368D01*
X52483232Y-26024525D01*
X52308840Y-25908000D01*
X52483232Y-25791475D01*
X52690075Y-25584632D01*
X52852590Y-25341411D01*
X52964532Y-25071158D01*
X53021600Y-24784260D01*
X53021600Y-24491740D01*
X52964532Y-24204842D01*
X52852590Y-23934589D01*
X52690075Y-23691368D01*
X52483232Y-23484525D01*
X52308840Y-23368000D01*
X52483232Y-23251475D01*
X52690075Y-23044632D01*
X52852590Y-22801411D01*
X52964532Y-22531158D01*
X53021600Y-22244260D01*
X53021600Y-21951740D01*
X52964532Y-21664842D01*
X52852590Y-21394589D01*
X52690075Y-21151368D01*
X52483232Y-20944525D01*
X52301066Y-20822805D01*
X52417955Y-20753178D01*
X52634188Y-20558269D01*
X52808241Y-20324920D01*
X52933425Y-20062099D01*
X52978076Y-19914890D01*
X52856755Y-19685000D01*
X51663600Y-19685000D01*
X51663600Y-19705000D01*
X51409600Y-19705000D01*
X51409600Y-19685000D01*
X51389600Y-19685000D01*
X51389600Y-19431000D01*
X51409600Y-19431000D01*
X51409600Y-19411000D01*
X51663600Y-19411000D01*
X51663600Y-19431000D01*
X52856755Y-19431000D01*
X52978076Y-19201110D01*
X52933425Y-19053901D01*
X52808241Y-18791080D01*
X52634188Y-18557731D01*
X52417955Y-18362822D01*
X52301066Y-18293195D01*
X52483232Y-18171475D01*
X52690075Y-17964632D01*
X52852590Y-17721411D01*
X52964532Y-17451158D01*
X53021600Y-17164260D01*
X53021600Y-16871740D01*
X52964532Y-16584842D01*
X52852590Y-16314589D01*
X52690075Y-16071368D01*
X52483232Y-15864525D01*
X52240011Y-15702010D01*
X51969758Y-15590068D01*
X51682860Y-15533000D01*
X51390340Y-15533000D01*
X51103442Y-15590068D01*
X50833189Y-15702010D01*
X50589968Y-15864525D01*
X50458113Y-15996380D01*
X50436102Y-15923820D01*
X50377137Y-15813506D01*
X50297785Y-15716815D01*
X50201094Y-15637463D01*
X50090780Y-15578498D01*
X49971082Y-15542188D01*
X49846600Y-15529928D01*
X48146600Y-15529928D01*
X48022118Y-15542188D01*
X47902420Y-15578498D01*
X47792106Y-15637463D01*
X47695415Y-15716815D01*
X47616063Y-15813506D01*
X47557098Y-15923820D01*
X47520788Y-16043518D01*
X47508528Y-16168000D01*
X22359666Y-16168000D01*
X22263836Y-15988714D01*
X21978980Y-15868826D01*
X20880605Y-16967200D01*
X20521395Y-16967200D01*
X19423020Y-15868826D01*
X19138164Y-15988714D01*
X18977301Y-16312410D01*
X18882678Y-16661269D01*
X18857933Y-17021884D01*
X18904015Y-17380398D01*
X19019154Y-17723033D01*
X19138164Y-17945686D01*
X19423019Y-18065573D01*
X19368737Y-18119855D01*
X19330744Y-18081862D01*
X19030199Y-17881044D01*
X18696250Y-17742718D01*
X18341732Y-17672200D01*
X17980268Y-17672200D01*
X17625750Y-17742718D01*
X17291801Y-17881044D01*
X16991256Y-18081862D01*
X16953263Y-18119855D01*
X16898981Y-18065573D01*
X17183836Y-17945686D01*
X17344699Y-17621990D01*
X17439322Y-17273131D01*
X17464067Y-16912516D01*
X17417985Y-16554002D01*
X17302846Y-16211367D01*
X17183836Y-15988714D01*
X16898980Y-15868826D01*
X15800605Y-16967200D01*
X15814748Y-16981342D01*
X15635142Y-17160948D01*
X15621000Y-17146805D01*
X14522626Y-18245180D01*
X13359600Y-18245180D01*
X13359600Y-17021884D01*
X13777933Y-17021884D01*
X13824015Y-17380398D01*
X13939154Y-17723033D01*
X14058164Y-17945686D01*
X14343020Y-18065574D01*
X15441395Y-16967200D01*
X14343020Y-15868826D01*
X14058164Y-15988714D01*
X13897301Y-16312410D01*
X13802678Y-16661269D01*
X13777933Y-17021884D01*
X13359600Y-17021884D01*
X13359600Y-15689220D01*
X14522626Y-15689220D01*
X15621000Y-16787595D01*
X16719374Y-15689220D01*
X19602626Y-15689220D01*
X20701000Y-16787595D01*
X21799374Y-15689220D01*
X21679486Y-15404364D01*
X21355790Y-15243501D01*
X21006931Y-15148878D01*
X20646316Y-15124133D01*
X20287802Y-15170215D01*
X19945167Y-15285354D01*
X19722514Y-15404364D01*
X19602626Y-15689220D01*
X16719374Y-15689220D01*
X16599486Y-15404364D01*
X16275790Y-15243501D01*
X15926931Y-15148878D01*
X15566316Y-15124133D01*
X15207802Y-15170215D01*
X14865167Y-15285354D01*
X14642514Y-15404364D01*
X14522626Y-15689220D01*
X13359600Y-15689220D01*
X13359600Y-14274000D01*
X54534600Y-14274000D01*
X54534601Y-34951200D01*
G37*
%TD.AperFunction*%
%TD*%
M02*
