%TF.GenerationSoftware,KiCad,Pcbnew,(5.1.9-0-10_14)*%
%TF.CreationDate,2021-04-20T21:20:53+01:00*%
%TF.ProjectId,pi-hat,70692d68-6174-42e6-9b69-6361645f7063,rev?*%
%TF.SameCoordinates,Original*%
%TF.FileFunction,Copper,L1,Top*%
%TF.FilePolarity,Positive*%
%FSLAX46Y46*%
G04 Gerber Fmt 4.6, Leading zero omitted, Abs format (unit mm)*
G04 Created by KiCad (PCBNEW (5.1.9-0-10_14)) date 2021-04-20 21:20:53*
%MOMM*%
%LPD*%
G01*
G04 APERTURE LIST*
%TA.AperFunction,SMDPad,CuDef*%
%ADD10R,2.500000X1.000000*%
%TD*%
%TA.AperFunction,ComponentPad*%
%ADD11O,1.700000X1.700000*%
%TD*%
%TA.AperFunction,ComponentPad*%
%ADD12R,1.700000X1.700000*%
%TD*%
%TA.AperFunction,ComponentPad*%
%ADD13C,2.400000*%
%TD*%
%TA.AperFunction,ViaPad*%
%ADD14C,0.800000*%
%TD*%
%TA.AperFunction,Conductor*%
%ADD15C,1.000000*%
%TD*%
%TA.AperFunction,Conductor*%
%ADD16C,1.050000*%
%TD*%
%TA.AperFunction,Conductor*%
%ADD17C,0.250000*%
%TD*%
%TA.AperFunction,Conductor*%
%ADD18C,0.750000*%
%TD*%
%TA.AperFunction,Conductor*%
%ADD19C,0.254000*%
%TD*%
%TA.AperFunction,Conductor*%
%ADD20C,0.100000*%
%TD*%
%TA.AperFunction,NonConductor*%
%ADD21C,0.254000*%
%TD*%
%TA.AperFunction,NonConductor*%
%ADD22C,0.100000*%
%TD*%
G04 APERTURE END LIST*
D10*
%TO.P,U1,1*%
%TO.N,Net-(J2-Pad7)*%
X43676200Y-31577800D03*
%TO.P,U1,2*%
%TO.N,Net-(J2-Pad14)*%
X43676200Y-29577800D03*
%TO.P,U1,3*%
%TO.N,Net-(U1-Pad3)*%
X43676200Y-27577800D03*
%TO.P,U1,4*%
%TO.N,Net-(U1-Pad4)*%
X43676200Y-25577800D03*
%TO.P,U1,5*%
%TO.N,Net-(U1-Pad5)*%
X43676200Y-23577800D03*
%TO.P,U1,6*%
%TO.N,Net-(U1-Pad6)*%
X43676200Y-21577800D03*
%TO.P,U1,7*%
%TO.N,Net-(U1-Pad7)*%
X43676200Y-19577800D03*
%TO.P,U1,8*%
%TO.N,Net-(J2-Pad1)*%
X43676200Y-17577800D03*
%TO.P,U1,9*%
%TO.N,GND*%
X25476200Y-17577800D03*
%TO.P,U1,10*%
%TO.N,Net-(J1-Pad1)*%
X25476200Y-19577800D03*
%TO.P,U1,11*%
%TO.N,GND*%
X25476200Y-21577800D03*
%TO.P,U1,12*%
%TO.N,Net-(J2-Pad4)*%
X25476200Y-23577800D03*
%TO.P,U1,13*%
%TO.N,Net-(J2-Pad3)*%
X25476200Y-25577800D03*
%TO.P,U1,14*%
%TO.N,Net-(J2-Pad2)*%
X25476200Y-27577800D03*
%TO.P,U1,15*%
%TO.N,Net-(J2-Pad11)*%
X25476200Y-29577800D03*
%TO.P,U1,16*%
%TO.N,Net-(U1-Pad16)*%
X25476200Y-31577800D03*
%TD*%
D11*
%TO.P,Pi 17-30,8*%
%TO.N,GND*%
X51536600Y-32258000D03*
%TO.P,Pi 17-30,7*%
%TO.N,Net-(J2-Pad7)*%
X48996600Y-32258000D03*
%TO.P,Pi 17-30,9*%
%TO.N,Net-(J2-Pad9)*%
X51536600Y-29718000D03*
%TO.P,Pi 17-30,6*%
%TO.N,Net-(J2-Pad6)*%
X48996600Y-29718000D03*
%TO.P,Pi 17-30,10*%
%TO.N,Net-(J2-Pad10)*%
X51536600Y-27178000D03*
%TO.P,Pi 17-30,5*%
%TO.N,GND*%
X48996600Y-27178000D03*
%TO.P,Pi 17-30,11*%
%TO.N,Net-(J2-Pad11)*%
X51536600Y-24638000D03*
%TO.P,Pi 17-30,4*%
%TO.N,Net-(J2-Pad4)*%
X48996600Y-24638000D03*
%TO.P,Pi 17-30,12*%
%TO.N,Net-(J2-Pad12)*%
X51536600Y-22098000D03*
%TO.P,Pi 17-30,3*%
%TO.N,Net-(J2-Pad3)*%
X48996600Y-22098000D03*
%TO.P,Pi 17-30,13*%
%TO.N,GND*%
X51536600Y-19558000D03*
%TO.P,Pi 17-30,2*%
%TO.N,Net-(J2-Pad2)*%
X48996600Y-19558000D03*
%TO.P,Pi 17-30,14*%
%TO.N,Net-(J2-Pad14)*%
X51536600Y-17018000D03*
D12*
%TO.P,Pi 17-30,1*%
%TO.N,Net-(J2-Pad1)*%
X48996600Y-17018000D03*
%TD*%
D13*
%TO.P,SMA,5*%
%TO.N,GND*%
X20701000Y-22047200D03*
%TO.P,SMA,4*%
X15621000Y-22047200D03*
%TO.P,SMA,3*%
X20701000Y-16967200D03*
%TO.P,SMA,2*%
X15621000Y-16967200D03*
%TO.P,SMA,1*%
%TO.N,Net-(J1-Pad1)*%
X18161000Y-19507200D03*
%TD*%
D14*
%TO.N,GND*%
X31318200Y-27305000D03*
X39100000Y-21851000D03*
X40030400Y-27228800D03*
X40030400Y-17475200D03*
X31292800Y-21666200D03*
X35052000Y-17424400D03*
X15621000Y-19304000D03*
X18161000Y-15265400D03*
X15621000Y-26187400D03*
X20904200Y-26009600D03*
X15671800Y-30530800D03*
X20980400Y-30632400D03*
X37850000Y-19751000D03*
X32639000Y-32893000D03*
X46482000Y-24079200D03*
X46583600Y-19634200D03*
X46456600Y-30937200D03*
X22860000Y-18262600D03*
X22809200Y-20904200D03*
X46550000Y-21601000D03*
X46500000Y-18001000D03*
X46550000Y-27751000D03*
X40300000Y-32851000D03*
X28300000Y-19501000D03*
%TD*%
D15*
%TO.N,Net-(J1-Pad1)*%
X18231600Y-19577800D02*
X18161000Y-19507200D01*
D16*
X25476200Y-19577800D02*
X18231600Y-19577800D01*
D17*
%TO.N,Net-(J2-Pad14)*%
X50361599Y-20122001D02*
X50361599Y-18193001D01*
X50972599Y-20733001D02*
X50361599Y-20122001D01*
X51910603Y-20733001D02*
X50972599Y-20733001D01*
X52711601Y-30282001D02*
X52711601Y-21533999D01*
X48432599Y-30893001D02*
X52100601Y-30893001D01*
X50361599Y-18193001D02*
X51536600Y-17018000D01*
X52100601Y-30893001D02*
X52711601Y-30282001D01*
X47117398Y-29577800D02*
X48432599Y-30893001D01*
X52711601Y-21533999D02*
X51910603Y-20733001D01*
X43676200Y-29577800D02*
X47117398Y-29577800D01*
%TO.N,Net-(J2-Pad11)*%
X38754402Y-29577800D02*
X25476200Y-29577800D01*
X44836203Y-26752799D02*
X41579403Y-26752799D01*
X41579403Y-26752799D02*
X38754402Y-29577800D01*
X45776001Y-25813001D02*
X44836203Y-26752799D01*
X50361599Y-25813001D02*
X45776001Y-25813001D01*
X51536600Y-24638000D02*
X50361599Y-25813001D01*
%TO.N,Net-(J2-Pad7)*%
X44356400Y-32258000D02*
X43676200Y-31577800D01*
X48996600Y-32258000D02*
X44356400Y-32258000D01*
%TO.N,Net-(J2-Pad4)*%
X26976200Y-23577800D02*
X25476200Y-23577800D01*
X29801201Y-20752799D02*
X26976200Y-23577800D01*
X50171601Y-21533999D02*
X49390401Y-20752799D01*
X49390401Y-20752799D02*
X29801201Y-20752799D01*
X50171601Y-23462999D02*
X50171601Y-21533999D01*
X48996600Y-24638000D02*
X50171601Y-23462999D01*
%TO.N,Net-(J2-Pad3)*%
X40671601Y-22402801D02*
X37496602Y-25577800D01*
X37496602Y-25577800D02*
X25476200Y-25577800D01*
X48691799Y-22402801D02*
X40671601Y-22402801D01*
X48996600Y-22098000D02*
X48691799Y-22402801D01*
%TO.N,Net-(J2-Pad2)*%
X23966199Y-22752799D02*
X23901199Y-22817799D01*
X26636203Y-22752799D02*
X23966199Y-22752799D01*
X30681001Y-18708001D02*
X26636203Y-22752799D01*
X25141198Y-27577800D02*
X25476200Y-27577800D01*
X23901199Y-26337801D02*
X25141198Y-27577800D01*
X48146601Y-18708001D02*
X30681001Y-18708001D01*
X23901199Y-22817799D02*
X23901199Y-26337801D01*
X48996600Y-19558000D02*
X48146601Y-18708001D01*
D18*
%TO.N,Net-(J2-Pad1)*%
X44236000Y-17018000D02*
X43676200Y-17577800D01*
X48996600Y-17018000D02*
X44236000Y-17018000D01*
%TO.N,GND*%
X24865600Y-16967200D02*
X25476200Y-17577800D01*
X20701000Y-16967200D02*
X24865600Y-16967200D01*
X20701000Y-16967200D02*
X15621000Y-16967200D01*
X15621000Y-16967200D02*
X15621000Y-19304000D01*
X15621000Y-22047200D02*
X20701000Y-22047200D01*
X20701000Y-22047200D02*
X20701000Y-22352000D01*
X27301201Y-20537801D02*
X27301201Y-18617799D01*
X26261202Y-17577800D02*
X25476200Y-17577800D01*
X27301201Y-18617799D02*
X26261202Y-17577800D01*
X26261202Y-21577800D02*
X27301201Y-20537801D01*
X25476200Y-21577800D02*
X26261202Y-21577800D01*
X15621000Y-19304000D02*
X15621000Y-22047200D01*
X27461001Y-15592999D02*
X25476200Y-17577800D01*
X52220601Y-15592999D02*
X27461001Y-15592999D01*
X52961601Y-16333999D02*
X52220601Y-15592999D01*
X52961601Y-18132999D02*
X52961601Y-16333999D01*
X51536600Y-19558000D02*
X52961601Y-18132999D01*
%TD*%
D19*
%TO.N,GND*%
X54842601Y-35259200D02*
X13051600Y-35259200D01*
X13051600Y-31077800D01*
X23897618Y-31077800D01*
X23897618Y-32077800D01*
X23903932Y-32141903D01*
X23922630Y-32203543D01*
X23952994Y-32260350D01*
X23993857Y-32310143D01*
X24043650Y-32351006D01*
X24100457Y-32381370D01*
X24162097Y-32400068D01*
X24226200Y-32406382D01*
X26726200Y-32406382D01*
X26790303Y-32400068D01*
X26851943Y-32381370D01*
X26908750Y-32351006D01*
X26958543Y-32310143D01*
X26999406Y-32260350D01*
X27029770Y-32203543D01*
X27048468Y-32141903D01*
X27054782Y-32077800D01*
X27054782Y-31077800D01*
X27048468Y-31013697D01*
X27029770Y-30952057D01*
X26999406Y-30895250D01*
X26958543Y-30845457D01*
X26908750Y-30804594D01*
X26851943Y-30774230D01*
X26790303Y-30755532D01*
X26726200Y-30749218D01*
X24226200Y-30749218D01*
X24162097Y-30755532D01*
X24100457Y-30774230D01*
X24043650Y-30804594D01*
X23993857Y-30845457D01*
X23952994Y-30895250D01*
X23922630Y-30952057D01*
X23903932Y-31013697D01*
X23897618Y-31077800D01*
X13051600Y-31077800D01*
X13051600Y-23325180D01*
X14522626Y-23325180D01*
X14642514Y-23610036D01*
X14966210Y-23770899D01*
X15315069Y-23865522D01*
X15675684Y-23890267D01*
X16034198Y-23844185D01*
X16376833Y-23729046D01*
X16599486Y-23610036D01*
X16719374Y-23325180D01*
X19602626Y-23325180D01*
X19722514Y-23610036D01*
X20046210Y-23770899D01*
X20395069Y-23865522D01*
X20755684Y-23890267D01*
X21114198Y-23844185D01*
X21456833Y-23729046D01*
X21679486Y-23610036D01*
X21799374Y-23325180D01*
X20701000Y-22226805D01*
X19602626Y-23325180D01*
X16719374Y-23325180D01*
X15621000Y-22226805D01*
X14522626Y-23325180D01*
X13051600Y-23325180D01*
X13051600Y-22101884D01*
X13777933Y-22101884D01*
X13824015Y-22460398D01*
X13939154Y-22803033D01*
X14058164Y-23025686D01*
X14343020Y-23145574D01*
X15441395Y-22047200D01*
X15800605Y-22047200D01*
X16898980Y-23145574D01*
X17183836Y-23025686D01*
X17344699Y-22701990D01*
X17439322Y-22353131D01*
X17456562Y-22101884D01*
X18857933Y-22101884D01*
X18904015Y-22460398D01*
X19019154Y-22803033D01*
X19138164Y-23025686D01*
X19423020Y-23145574D01*
X20521395Y-22047200D01*
X20880605Y-22047200D01*
X21978980Y-23145574D01*
X22263836Y-23025686D01*
X22367146Y-22817799D01*
X23447012Y-22817799D01*
X23449199Y-22840004D01*
X23449200Y-26315586D01*
X23447012Y-26337801D01*
X23455739Y-26426408D01*
X23481585Y-26511610D01*
X23481586Y-26511611D01*
X23523557Y-26590134D01*
X23580041Y-26658960D01*
X23597295Y-26673120D01*
X23911831Y-26987657D01*
X23903932Y-27013697D01*
X23897618Y-27077800D01*
X23897618Y-28077800D01*
X23903932Y-28141903D01*
X23922630Y-28203543D01*
X23952994Y-28260350D01*
X23993857Y-28310143D01*
X24043650Y-28351006D01*
X24100457Y-28381370D01*
X24162097Y-28400068D01*
X24226200Y-28406382D01*
X26726200Y-28406382D01*
X26790303Y-28400068D01*
X26851943Y-28381370D01*
X26908750Y-28351006D01*
X26958543Y-28310143D01*
X26999406Y-28260350D01*
X27029770Y-28203543D01*
X27048468Y-28141903D01*
X27054782Y-28077800D01*
X27054782Y-27077800D01*
X27048468Y-27013697D01*
X27029770Y-26952057D01*
X26999406Y-26895250D01*
X26958543Y-26845457D01*
X26908750Y-26804594D01*
X26851943Y-26774230D01*
X26790303Y-26755532D01*
X26726200Y-26749218D01*
X24951840Y-26749218D01*
X24609004Y-26406382D01*
X26726200Y-26406382D01*
X26790303Y-26400068D01*
X26851943Y-26381370D01*
X26908750Y-26351006D01*
X26958543Y-26310143D01*
X26999406Y-26260350D01*
X27029770Y-26203543D01*
X27048468Y-26141903D01*
X27054782Y-26077800D01*
X27054782Y-26029800D01*
X37474397Y-26029800D01*
X37496602Y-26031987D01*
X37518807Y-26029800D01*
X37585209Y-26023260D01*
X37670412Y-25997414D01*
X37748935Y-25955443D01*
X37817761Y-25898959D01*
X37831925Y-25881700D01*
X40858825Y-22854801D01*
X42186189Y-22854801D01*
X42152994Y-22895250D01*
X42122630Y-22952057D01*
X42103932Y-23013697D01*
X42097618Y-23077800D01*
X42097618Y-24077800D01*
X42103932Y-24141903D01*
X42122630Y-24203543D01*
X42152994Y-24260350D01*
X42193857Y-24310143D01*
X42243650Y-24351006D01*
X42300457Y-24381370D01*
X42362097Y-24400068D01*
X42426200Y-24406382D01*
X44926200Y-24406382D01*
X44990303Y-24400068D01*
X45051943Y-24381370D01*
X45108750Y-24351006D01*
X45158543Y-24310143D01*
X45199406Y-24260350D01*
X45229770Y-24203543D01*
X45248468Y-24141903D01*
X45254782Y-24077800D01*
X45254782Y-23077800D01*
X45248468Y-23013697D01*
X45229770Y-22952057D01*
X45199406Y-22895250D01*
X45166211Y-22854801D01*
X48088871Y-22854801D01*
X48246306Y-23012236D01*
X48439081Y-23141044D01*
X48653282Y-23229769D01*
X48880676Y-23275000D01*
X49112524Y-23275000D01*
X49339918Y-23229769D01*
X49554119Y-23141044D01*
X49719601Y-23030472D01*
X49719601Y-23275774D01*
X49445437Y-23549939D01*
X49339918Y-23506231D01*
X49112524Y-23461000D01*
X48880676Y-23461000D01*
X48653282Y-23506231D01*
X48439081Y-23594956D01*
X48246306Y-23723764D01*
X48082364Y-23887706D01*
X47953556Y-24080481D01*
X47864831Y-24294682D01*
X47819600Y-24522076D01*
X47819600Y-24753924D01*
X47864831Y-24981318D01*
X47953556Y-25195519D01*
X48064127Y-25361001D01*
X45798205Y-25361001D01*
X45776000Y-25358814D01*
X45687393Y-25367541D01*
X45618980Y-25388294D01*
X45602191Y-25393387D01*
X45523668Y-25435358D01*
X45454842Y-25491842D01*
X45440686Y-25509091D01*
X45254782Y-25694995D01*
X45254782Y-25077800D01*
X45248468Y-25013697D01*
X45229770Y-24952057D01*
X45199406Y-24895250D01*
X45158543Y-24845457D01*
X45108750Y-24804594D01*
X45051943Y-24774230D01*
X44990303Y-24755532D01*
X44926200Y-24749218D01*
X42426200Y-24749218D01*
X42362097Y-24755532D01*
X42300457Y-24774230D01*
X42243650Y-24804594D01*
X42193857Y-24845457D01*
X42152994Y-24895250D01*
X42122630Y-24952057D01*
X42103932Y-25013697D01*
X42097618Y-25077800D01*
X42097618Y-26077800D01*
X42103932Y-26141903D01*
X42122630Y-26203543D01*
X42152994Y-26260350D01*
X42186189Y-26300799D01*
X41601608Y-26300799D01*
X41579403Y-26298612D01*
X41490795Y-26307339D01*
X41481552Y-26310143D01*
X41405593Y-26333185D01*
X41327070Y-26375156D01*
X41258244Y-26431640D01*
X41244084Y-26448894D01*
X38567179Y-29125800D01*
X27054782Y-29125800D01*
X27054782Y-29077800D01*
X27048468Y-29013697D01*
X27029770Y-28952057D01*
X26999406Y-28895250D01*
X26958543Y-28845457D01*
X26908750Y-28804594D01*
X26851943Y-28774230D01*
X26790303Y-28755532D01*
X26726200Y-28749218D01*
X24226200Y-28749218D01*
X24162097Y-28755532D01*
X24100457Y-28774230D01*
X24043650Y-28804594D01*
X23993857Y-28845457D01*
X23952994Y-28895250D01*
X23922630Y-28952057D01*
X23903932Y-29013697D01*
X23897618Y-29077800D01*
X23897618Y-30077800D01*
X23903932Y-30141903D01*
X23922630Y-30203543D01*
X23952994Y-30260350D01*
X23993857Y-30310143D01*
X24043650Y-30351006D01*
X24100457Y-30381370D01*
X24162097Y-30400068D01*
X24226200Y-30406382D01*
X26726200Y-30406382D01*
X26790303Y-30400068D01*
X26851943Y-30381370D01*
X26908750Y-30351006D01*
X26958543Y-30310143D01*
X26999406Y-30260350D01*
X27029770Y-30203543D01*
X27048468Y-30141903D01*
X27054782Y-30077800D01*
X27054782Y-30029800D01*
X38732197Y-30029800D01*
X38754402Y-30031987D01*
X38776607Y-30029800D01*
X38843009Y-30023260D01*
X38928212Y-29997414D01*
X39006735Y-29955443D01*
X39075561Y-29898959D01*
X39089725Y-29881700D01*
X41766627Y-27204799D01*
X42097618Y-27204799D01*
X42097618Y-28077800D01*
X42103932Y-28141903D01*
X42122630Y-28203543D01*
X42152994Y-28260350D01*
X42193857Y-28310143D01*
X42243650Y-28351006D01*
X42300457Y-28381370D01*
X42362097Y-28400068D01*
X42426200Y-28406382D01*
X44926200Y-28406382D01*
X44990303Y-28400068D01*
X45051943Y-28381370D01*
X45108750Y-28351006D01*
X45158543Y-28310143D01*
X45199406Y-28260350D01*
X45229770Y-28203543D01*
X45248468Y-28141903D01*
X45254782Y-28077800D01*
X45254782Y-27077800D01*
X45248468Y-27013697D01*
X45240569Y-26987656D01*
X45963226Y-26265001D01*
X47833918Y-26265001D01*
X47724959Y-26411080D01*
X47599775Y-26673901D01*
X47555124Y-26821110D01*
X47676445Y-27051000D01*
X48869600Y-27051000D01*
X48869600Y-27031000D01*
X49123600Y-27031000D01*
X49123600Y-27051000D01*
X49143600Y-27051000D01*
X49143600Y-27305000D01*
X49123600Y-27305000D01*
X49123600Y-27325000D01*
X48869600Y-27325000D01*
X48869600Y-27305000D01*
X47676445Y-27305000D01*
X47555124Y-27534890D01*
X47599775Y-27682099D01*
X47724959Y-27944920D01*
X47899012Y-28178269D01*
X48115245Y-28373178D01*
X48365348Y-28522157D01*
X48603779Y-28606736D01*
X48439081Y-28674956D01*
X48246306Y-28803764D01*
X48082364Y-28967706D01*
X47953556Y-29160481D01*
X47864831Y-29374682D01*
X47819600Y-29602076D01*
X47819600Y-29640778D01*
X47452721Y-29273900D01*
X47438557Y-29256641D01*
X47369731Y-29200157D01*
X47291208Y-29158186D01*
X47206005Y-29132340D01*
X47139603Y-29125800D01*
X47117398Y-29123613D01*
X47095193Y-29125800D01*
X45254782Y-29125800D01*
X45254782Y-29077800D01*
X45248468Y-29013697D01*
X45229770Y-28952057D01*
X45199406Y-28895250D01*
X45158543Y-28845457D01*
X45108750Y-28804594D01*
X45051943Y-28774230D01*
X44990303Y-28755532D01*
X44926200Y-28749218D01*
X42426200Y-28749218D01*
X42362097Y-28755532D01*
X42300457Y-28774230D01*
X42243650Y-28804594D01*
X42193857Y-28845457D01*
X42152994Y-28895250D01*
X42122630Y-28952057D01*
X42103932Y-29013697D01*
X42097618Y-29077800D01*
X42097618Y-30077800D01*
X42103932Y-30141903D01*
X42122630Y-30203543D01*
X42152994Y-30260350D01*
X42193857Y-30310143D01*
X42243650Y-30351006D01*
X42300457Y-30381370D01*
X42362097Y-30400068D01*
X42426200Y-30406382D01*
X44926200Y-30406382D01*
X44990303Y-30400068D01*
X45051943Y-30381370D01*
X45108750Y-30351006D01*
X45158543Y-30310143D01*
X45199406Y-30260350D01*
X45229770Y-30203543D01*
X45248468Y-30141903D01*
X45254782Y-30077800D01*
X45254782Y-30029800D01*
X46930175Y-30029800D01*
X48097284Y-31196911D01*
X48111440Y-31214160D01*
X48180266Y-31270644D01*
X48258789Y-31312615D01*
X48282266Y-31319737D01*
X48246306Y-31343764D01*
X48082364Y-31507706D01*
X47953556Y-31700481D01*
X47909849Y-31806000D01*
X45254782Y-31806000D01*
X45254782Y-31077800D01*
X45248468Y-31013697D01*
X45229770Y-30952057D01*
X45199406Y-30895250D01*
X45158543Y-30845457D01*
X45108750Y-30804594D01*
X45051943Y-30774230D01*
X44990303Y-30755532D01*
X44926200Y-30749218D01*
X42426200Y-30749218D01*
X42362097Y-30755532D01*
X42300457Y-30774230D01*
X42243650Y-30804594D01*
X42193857Y-30845457D01*
X42152994Y-30895250D01*
X42122630Y-30952057D01*
X42103932Y-31013697D01*
X42097618Y-31077800D01*
X42097618Y-32077800D01*
X42103932Y-32141903D01*
X42122630Y-32203543D01*
X42152994Y-32260350D01*
X42193857Y-32310143D01*
X42243650Y-32351006D01*
X42300457Y-32381370D01*
X42362097Y-32400068D01*
X42426200Y-32406382D01*
X43865558Y-32406382D01*
X44021085Y-32561910D01*
X44035241Y-32579159D01*
X44104067Y-32635643D01*
X44182590Y-32677614D01*
X44267792Y-32703460D01*
X44356399Y-32712187D01*
X44378604Y-32710000D01*
X47909849Y-32710000D01*
X47953556Y-32815519D01*
X48082364Y-33008294D01*
X48246306Y-33172236D01*
X48439081Y-33301044D01*
X48653282Y-33389769D01*
X48880676Y-33435000D01*
X49112524Y-33435000D01*
X49339918Y-33389769D01*
X49554119Y-33301044D01*
X49746894Y-33172236D01*
X49910836Y-33008294D01*
X50039644Y-32815519D01*
X50106801Y-32653388D01*
X50139775Y-32762099D01*
X50264959Y-33024920D01*
X50439012Y-33258269D01*
X50655245Y-33453178D01*
X50905348Y-33602157D01*
X51179709Y-33699481D01*
X51409600Y-33578814D01*
X51409600Y-32385000D01*
X51663600Y-32385000D01*
X51663600Y-33578814D01*
X51893491Y-33699481D01*
X52167852Y-33602157D01*
X52417955Y-33453178D01*
X52634188Y-33258269D01*
X52808241Y-33024920D01*
X52933425Y-32762099D01*
X52978076Y-32614890D01*
X52856755Y-32385000D01*
X51663600Y-32385000D01*
X51409600Y-32385000D01*
X51389600Y-32385000D01*
X51389600Y-32131000D01*
X51409600Y-32131000D01*
X51409600Y-32111000D01*
X51663600Y-32111000D01*
X51663600Y-32131000D01*
X52856755Y-32131000D01*
X52978076Y-31901110D01*
X52933425Y-31753901D01*
X52808241Y-31491080D01*
X52634188Y-31257731D01*
X52497922Y-31134903D01*
X53015512Y-30617315D01*
X53032760Y-30603160D01*
X53089244Y-30534334D01*
X53131215Y-30455811D01*
X53157061Y-30370608D01*
X53163601Y-30304206D01*
X53163601Y-30304205D01*
X53165788Y-30282002D01*
X53163601Y-30259799D01*
X53163601Y-21556203D01*
X53165788Y-21533998D01*
X53157061Y-21445391D01*
X53140989Y-21392410D01*
X53131215Y-21360189D01*
X53089244Y-21281666D01*
X53032760Y-21212840D01*
X53015511Y-21198684D01*
X52497922Y-20681097D01*
X52634188Y-20558269D01*
X52808241Y-20324920D01*
X52933425Y-20062099D01*
X52978076Y-19914890D01*
X52856755Y-19685000D01*
X51663600Y-19685000D01*
X51663600Y-19705000D01*
X51409600Y-19705000D01*
X51409600Y-19685000D01*
X51389600Y-19685000D01*
X51389600Y-19431000D01*
X51409600Y-19431000D01*
X51409600Y-19411000D01*
X51663600Y-19411000D01*
X51663600Y-19431000D01*
X52856755Y-19431000D01*
X52978076Y-19201110D01*
X52933425Y-19053901D01*
X52808241Y-18791080D01*
X52634188Y-18557731D01*
X52417955Y-18362822D01*
X52167852Y-18213843D01*
X51929421Y-18129264D01*
X52094119Y-18061044D01*
X52286894Y-17932236D01*
X52450836Y-17768294D01*
X52579644Y-17575519D01*
X52668369Y-17361318D01*
X52713600Y-17133924D01*
X52713600Y-16902076D01*
X52668369Y-16674682D01*
X52579644Y-16460481D01*
X52450836Y-16267706D01*
X52286894Y-16103764D01*
X52094119Y-15974956D01*
X51879918Y-15886231D01*
X51652524Y-15841000D01*
X51420676Y-15841000D01*
X51193282Y-15886231D01*
X50979081Y-15974956D01*
X50786306Y-16103764D01*
X50622364Y-16267706D01*
X50493556Y-16460481D01*
X50404831Y-16674682D01*
X50359600Y-16902076D01*
X50359600Y-17133924D01*
X50404831Y-17361318D01*
X50448539Y-17466838D01*
X50175182Y-17740195D01*
X50175182Y-16168000D01*
X50168868Y-16103897D01*
X50150170Y-16042257D01*
X50119806Y-15985450D01*
X50078943Y-15935657D01*
X50029150Y-15894794D01*
X49972343Y-15864430D01*
X49910703Y-15845732D01*
X49846600Y-15839418D01*
X48146600Y-15839418D01*
X48082497Y-15845732D01*
X48020857Y-15864430D01*
X47964050Y-15894794D01*
X47914257Y-15935657D01*
X47873394Y-15985450D01*
X47843030Y-16042257D01*
X47824332Y-16103897D01*
X47818018Y-16168000D01*
X47818018Y-16316000D01*
X44270470Y-16316000D01*
X44236000Y-16312605D01*
X44201530Y-16316000D01*
X44201520Y-16316000D01*
X44098384Y-16326158D01*
X43966057Y-16366299D01*
X43844103Y-16431485D01*
X43763992Y-16497230D01*
X43763989Y-16497233D01*
X43737210Y-16519210D01*
X43715233Y-16545989D01*
X43512004Y-16749218D01*
X42426200Y-16749218D01*
X42362097Y-16755532D01*
X42300457Y-16774230D01*
X42243650Y-16804594D01*
X42193857Y-16845457D01*
X42152994Y-16895250D01*
X42122630Y-16952057D01*
X42103932Y-17013697D01*
X42097618Y-17077800D01*
X42097618Y-18077800D01*
X42103932Y-18141903D01*
X42122630Y-18203543D01*
X42150669Y-18256001D01*
X30703205Y-18256001D01*
X30681000Y-18253814D01*
X30592393Y-18262541D01*
X30568988Y-18269641D01*
X30507191Y-18288387D01*
X30428668Y-18330358D01*
X30359842Y-18386842D01*
X30345687Y-18404090D01*
X27298981Y-21450798D01*
X27202452Y-21450798D01*
X27361200Y-21292050D01*
X27364272Y-21077800D01*
X27352012Y-20953318D01*
X27315702Y-20833620D01*
X27256737Y-20723306D01*
X27177385Y-20626615D01*
X27080694Y-20547263D01*
X26970380Y-20488298D01*
X26850682Y-20451988D01*
X26726200Y-20439728D01*
X25761950Y-20442800D01*
X25603200Y-20601550D01*
X25603200Y-21450800D01*
X25623200Y-21450800D01*
X25623200Y-21704800D01*
X25603200Y-21704800D01*
X25603200Y-21724800D01*
X25349200Y-21724800D01*
X25349200Y-21704800D01*
X23749950Y-21704800D01*
X23591200Y-21863550D01*
X23588128Y-22077800D01*
X23600388Y-22202282D01*
X23636698Y-22321980D01*
X23679984Y-22402962D01*
X23645040Y-22431640D01*
X23630876Y-22448899D01*
X23597299Y-22482476D01*
X23580040Y-22496640D01*
X23523556Y-22565467D01*
X23516328Y-22578990D01*
X23481585Y-22643990D01*
X23455739Y-22729192D01*
X23447012Y-22817799D01*
X22367146Y-22817799D01*
X22424699Y-22701990D01*
X22519322Y-22353131D01*
X22544067Y-21992516D01*
X22497985Y-21634002D01*
X22382846Y-21291367D01*
X22268693Y-21077800D01*
X23588128Y-21077800D01*
X23591200Y-21292050D01*
X23749950Y-21450800D01*
X25349200Y-21450800D01*
X25349200Y-20601550D01*
X25190450Y-20442800D01*
X24226200Y-20439728D01*
X24101718Y-20451988D01*
X23982020Y-20488298D01*
X23871706Y-20547263D01*
X23775015Y-20626615D01*
X23695663Y-20723306D01*
X23636698Y-20833620D01*
X23600388Y-20953318D01*
X23588128Y-21077800D01*
X22268693Y-21077800D01*
X22263836Y-21068714D01*
X21978980Y-20948826D01*
X20880605Y-22047200D01*
X20521395Y-22047200D01*
X19423020Y-20948826D01*
X19138164Y-21068714D01*
X18977301Y-21392410D01*
X18882678Y-21741269D01*
X18857933Y-22101884D01*
X17456562Y-22101884D01*
X17464067Y-21992516D01*
X17417985Y-21634002D01*
X17302846Y-21291367D01*
X17183836Y-21068714D01*
X16898980Y-20948826D01*
X15800605Y-22047200D01*
X15441395Y-22047200D01*
X14343020Y-20948826D01*
X14058164Y-21068714D01*
X13897301Y-21392410D01*
X13802678Y-21741269D01*
X13777933Y-22101884D01*
X13051600Y-22101884D01*
X13051600Y-20769220D01*
X14522626Y-20769220D01*
X15621000Y-21867595D01*
X16719374Y-20769220D01*
X16599486Y-20484364D01*
X16275790Y-20323501D01*
X15926931Y-20228878D01*
X15566316Y-20204133D01*
X15207802Y-20250215D01*
X14865167Y-20365354D01*
X14642514Y-20484364D01*
X14522626Y-20769220D01*
X13051600Y-20769220D01*
X13051600Y-19356804D01*
X16634000Y-19356804D01*
X16634000Y-19657596D01*
X16692681Y-19952610D01*
X16807790Y-20230506D01*
X16974901Y-20480606D01*
X17187594Y-20693299D01*
X17437694Y-20860410D01*
X17715590Y-20975519D01*
X18010604Y-21034200D01*
X18311396Y-21034200D01*
X18606410Y-20975519D01*
X18884306Y-20860410D01*
X19134406Y-20693299D01*
X19347099Y-20480606D01*
X19381046Y-20429800D01*
X19824596Y-20429800D01*
X19722514Y-20484364D01*
X19602626Y-20769220D01*
X20701000Y-21867595D01*
X21799374Y-20769220D01*
X21679486Y-20484364D01*
X21569690Y-20429800D01*
X25518052Y-20429800D01*
X25643221Y-20417472D01*
X25679780Y-20406382D01*
X26726200Y-20406382D01*
X26790303Y-20400068D01*
X26851943Y-20381370D01*
X26908750Y-20351006D01*
X26958543Y-20310143D01*
X26999406Y-20260350D01*
X27029770Y-20203543D01*
X27048468Y-20141903D01*
X27054782Y-20077800D01*
X27054782Y-19077800D01*
X27048468Y-19013697D01*
X27029770Y-18952057D01*
X26999406Y-18895250D01*
X26958543Y-18845457D01*
X26908750Y-18804594D01*
X26851943Y-18774230D01*
X26790303Y-18755532D01*
X26726200Y-18749218D01*
X25679780Y-18749218D01*
X25643221Y-18738128D01*
X25518052Y-18725800D01*
X21228426Y-18725800D01*
X21456833Y-18649046D01*
X21679486Y-18530036D01*
X21799374Y-18245180D01*
X21631995Y-18077800D01*
X23588128Y-18077800D01*
X23600388Y-18202282D01*
X23636698Y-18321980D01*
X23695663Y-18432294D01*
X23775015Y-18528985D01*
X23871706Y-18608337D01*
X23982020Y-18667302D01*
X24101718Y-18703612D01*
X24226200Y-18715872D01*
X25190450Y-18712800D01*
X25349200Y-18554050D01*
X25349200Y-17704800D01*
X25603200Y-17704800D01*
X25603200Y-18554050D01*
X25761950Y-18712800D01*
X26726200Y-18715872D01*
X26850682Y-18703612D01*
X26970380Y-18667302D01*
X27080694Y-18608337D01*
X27177385Y-18528985D01*
X27256737Y-18432294D01*
X27315702Y-18321980D01*
X27352012Y-18202282D01*
X27364272Y-18077800D01*
X27361200Y-17863550D01*
X27202450Y-17704800D01*
X25603200Y-17704800D01*
X25349200Y-17704800D01*
X23749950Y-17704800D01*
X23591200Y-17863550D01*
X23588128Y-18077800D01*
X21631995Y-18077800D01*
X20701000Y-17146805D01*
X19602626Y-18245180D01*
X19722514Y-18530036D01*
X20046210Y-18690899D01*
X20174884Y-18725800D01*
X19475393Y-18725800D01*
X19347099Y-18533794D01*
X19134406Y-18321101D01*
X18884306Y-18153990D01*
X18606410Y-18038881D01*
X18311396Y-17980200D01*
X18010604Y-17980200D01*
X17715590Y-18038881D01*
X17437694Y-18153990D01*
X17187594Y-18321101D01*
X16974901Y-18533794D01*
X16807790Y-18783894D01*
X16692681Y-19061790D01*
X16634000Y-19356804D01*
X13051600Y-19356804D01*
X13051600Y-18245180D01*
X14522626Y-18245180D01*
X14642514Y-18530036D01*
X14966210Y-18690899D01*
X15315069Y-18785522D01*
X15675684Y-18810267D01*
X16034198Y-18764185D01*
X16376833Y-18649046D01*
X16599486Y-18530036D01*
X16719374Y-18245180D01*
X15621000Y-17146805D01*
X14522626Y-18245180D01*
X13051600Y-18245180D01*
X13051600Y-17021884D01*
X13777933Y-17021884D01*
X13824015Y-17380398D01*
X13939154Y-17723033D01*
X14058164Y-17945686D01*
X14343020Y-18065574D01*
X15441395Y-16967200D01*
X15800605Y-16967200D01*
X16898980Y-18065574D01*
X17183836Y-17945686D01*
X17344699Y-17621990D01*
X17439322Y-17273131D01*
X17456562Y-17021884D01*
X18857933Y-17021884D01*
X18904015Y-17380398D01*
X19019154Y-17723033D01*
X19138164Y-17945686D01*
X19423020Y-18065574D01*
X20521395Y-16967200D01*
X20880605Y-16967200D01*
X21978980Y-18065574D01*
X22263836Y-17945686D01*
X22424699Y-17621990D01*
X22519322Y-17273131D01*
X22532725Y-17077800D01*
X23588128Y-17077800D01*
X23591200Y-17292050D01*
X23749950Y-17450800D01*
X25349200Y-17450800D01*
X25349200Y-16601550D01*
X25603200Y-16601550D01*
X25603200Y-17450800D01*
X27202450Y-17450800D01*
X27361200Y-17292050D01*
X27364272Y-17077800D01*
X27352012Y-16953318D01*
X27315702Y-16833620D01*
X27256737Y-16723306D01*
X27177385Y-16626615D01*
X27080694Y-16547263D01*
X26970380Y-16488298D01*
X26850682Y-16451988D01*
X26726200Y-16439728D01*
X25761950Y-16442800D01*
X25603200Y-16601550D01*
X25349200Y-16601550D01*
X25190450Y-16442800D01*
X24226200Y-16439728D01*
X24101718Y-16451988D01*
X23982020Y-16488298D01*
X23871706Y-16547263D01*
X23775015Y-16626615D01*
X23695663Y-16723306D01*
X23636698Y-16833620D01*
X23600388Y-16953318D01*
X23588128Y-17077800D01*
X22532725Y-17077800D01*
X22544067Y-16912516D01*
X22497985Y-16554002D01*
X22382846Y-16211367D01*
X22263836Y-15988714D01*
X21978980Y-15868826D01*
X20880605Y-16967200D01*
X20521395Y-16967200D01*
X19423020Y-15868826D01*
X19138164Y-15988714D01*
X18977301Y-16312410D01*
X18882678Y-16661269D01*
X18857933Y-17021884D01*
X17456562Y-17021884D01*
X17464067Y-16912516D01*
X17417985Y-16554002D01*
X17302846Y-16211367D01*
X17183836Y-15988714D01*
X16898980Y-15868826D01*
X15800605Y-16967200D01*
X15441395Y-16967200D01*
X14343020Y-15868826D01*
X14058164Y-15988714D01*
X13897301Y-16312410D01*
X13802678Y-16661269D01*
X13777933Y-17021884D01*
X13051600Y-17021884D01*
X13051600Y-15689220D01*
X14522626Y-15689220D01*
X15621000Y-16787595D01*
X16719374Y-15689220D01*
X19602626Y-15689220D01*
X20701000Y-16787595D01*
X21799374Y-15689220D01*
X21679486Y-15404364D01*
X21355790Y-15243501D01*
X21006931Y-15148878D01*
X20646316Y-15124133D01*
X20287802Y-15170215D01*
X19945167Y-15285354D01*
X19722514Y-15404364D01*
X19602626Y-15689220D01*
X16719374Y-15689220D01*
X16599486Y-15404364D01*
X16275790Y-15243501D01*
X15926931Y-15148878D01*
X15566316Y-15124133D01*
X15207802Y-15170215D01*
X14865167Y-15285354D01*
X14642514Y-15404364D01*
X14522626Y-15689220D01*
X13051600Y-15689220D01*
X13051600Y-13966000D01*
X54842600Y-13966000D01*
X54842601Y-35259200D01*
%TA.AperFunction,Conductor*%
D20*
G36*
X54842601Y-35259200D02*
G01*
X13051600Y-35259200D01*
X13051600Y-31077800D01*
X23897618Y-31077800D01*
X23897618Y-32077800D01*
X23903932Y-32141903D01*
X23922630Y-32203543D01*
X23952994Y-32260350D01*
X23993857Y-32310143D01*
X24043650Y-32351006D01*
X24100457Y-32381370D01*
X24162097Y-32400068D01*
X24226200Y-32406382D01*
X26726200Y-32406382D01*
X26790303Y-32400068D01*
X26851943Y-32381370D01*
X26908750Y-32351006D01*
X26958543Y-32310143D01*
X26999406Y-32260350D01*
X27029770Y-32203543D01*
X27048468Y-32141903D01*
X27054782Y-32077800D01*
X27054782Y-31077800D01*
X27048468Y-31013697D01*
X27029770Y-30952057D01*
X26999406Y-30895250D01*
X26958543Y-30845457D01*
X26908750Y-30804594D01*
X26851943Y-30774230D01*
X26790303Y-30755532D01*
X26726200Y-30749218D01*
X24226200Y-30749218D01*
X24162097Y-30755532D01*
X24100457Y-30774230D01*
X24043650Y-30804594D01*
X23993857Y-30845457D01*
X23952994Y-30895250D01*
X23922630Y-30952057D01*
X23903932Y-31013697D01*
X23897618Y-31077800D01*
X13051600Y-31077800D01*
X13051600Y-23325180D01*
X14522626Y-23325180D01*
X14642514Y-23610036D01*
X14966210Y-23770899D01*
X15315069Y-23865522D01*
X15675684Y-23890267D01*
X16034198Y-23844185D01*
X16376833Y-23729046D01*
X16599486Y-23610036D01*
X16719374Y-23325180D01*
X19602626Y-23325180D01*
X19722514Y-23610036D01*
X20046210Y-23770899D01*
X20395069Y-23865522D01*
X20755684Y-23890267D01*
X21114198Y-23844185D01*
X21456833Y-23729046D01*
X21679486Y-23610036D01*
X21799374Y-23325180D01*
X20701000Y-22226805D01*
X19602626Y-23325180D01*
X16719374Y-23325180D01*
X15621000Y-22226805D01*
X14522626Y-23325180D01*
X13051600Y-23325180D01*
X13051600Y-22101884D01*
X13777933Y-22101884D01*
X13824015Y-22460398D01*
X13939154Y-22803033D01*
X14058164Y-23025686D01*
X14343020Y-23145574D01*
X15441395Y-22047200D01*
X15800605Y-22047200D01*
X16898980Y-23145574D01*
X17183836Y-23025686D01*
X17344699Y-22701990D01*
X17439322Y-22353131D01*
X17456562Y-22101884D01*
X18857933Y-22101884D01*
X18904015Y-22460398D01*
X19019154Y-22803033D01*
X19138164Y-23025686D01*
X19423020Y-23145574D01*
X20521395Y-22047200D01*
X20880605Y-22047200D01*
X21978980Y-23145574D01*
X22263836Y-23025686D01*
X22367146Y-22817799D01*
X23447012Y-22817799D01*
X23449199Y-22840004D01*
X23449200Y-26315586D01*
X23447012Y-26337801D01*
X23455739Y-26426408D01*
X23481585Y-26511610D01*
X23481586Y-26511611D01*
X23523557Y-26590134D01*
X23580041Y-26658960D01*
X23597295Y-26673120D01*
X23911831Y-26987657D01*
X23903932Y-27013697D01*
X23897618Y-27077800D01*
X23897618Y-28077800D01*
X23903932Y-28141903D01*
X23922630Y-28203543D01*
X23952994Y-28260350D01*
X23993857Y-28310143D01*
X24043650Y-28351006D01*
X24100457Y-28381370D01*
X24162097Y-28400068D01*
X24226200Y-28406382D01*
X26726200Y-28406382D01*
X26790303Y-28400068D01*
X26851943Y-28381370D01*
X26908750Y-28351006D01*
X26958543Y-28310143D01*
X26999406Y-28260350D01*
X27029770Y-28203543D01*
X27048468Y-28141903D01*
X27054782Y-28077800D01*
X27054782Y-27077800D01*
X27048468Y-27013697D01*
X27029770Y-26952057D01*
X26999406Y-26895250D01*
X26958543Y-26845457D01*
X26908750Y-26804594D01*
X26851943Y-26774230D01*
X26790303Y-26755532D01*
X26726200Y-26749218D01*
X24951840Y-26749218D01*
X24609004Y-26406382D01*
X26726200Y-26406382D01*
X26790303Y-26400068D01*
X26851943Y-26381370D01*
X26908750Y-26351006D01*
X26958543Y-26310143D01*
X26999406Y-26260350D01*
X27029770Y-26203543D01*
X27048468Y-26141903D01*
X27054782Y-26077800D01*
X27054782Y-26029800D01*
X37474397Y-26029800D01*
X37496602Y-26031987D01*
X37518807Y-26029800D01*
X37585209Y-26023260D01*
X37670412Y-25997414D01*
X37748935Y-25955443D01*
X37817761Y-25898959D01*
X37831925Y-25881700D01*
X40858825Y-22854801D01*
X42186189Y-22854801D01*
X42152994Y-22895250D01*
X42122630Y-22952057D01*
X42103932Y-23013697D01*
X42097618Y-23077800D01*
X42097618Y-24077800D01*
X42103932Y-24141903D01*
X42122630Y-24203543D01*
X42152994Y-24260350D01*
X42193857Y-24310143D01*
X42243650Y-24351006D01*
X42300457Y-24381370D01*
X42362097Y-24400068D01*
X42426200Y-24406382D01*
X44926200Y-24406382D01*
X44990303Y-24400068D01*
X45051943Y-24381370D01*
X45108750Y-24351006D01*
X45158543Y-24310143D01*
X45199406Y-24260350D01*
X45229770Y-24203543D01*
X45248468Y-24141903D01*
X45254782Y-24077800D01*
X45254782Y-23077800D01*
X45248468Y-23013697D01*
X45229770Y-22952057D01*
X45199406Y-22895250D01*
X45166211Y-22854801D01*
X48088871Y-22854801D01*
X48246306Y-23012236D01*
X48439081Y-23141044D01*
X48653282Y-23229769D01*
X48880676Y-23275000D01*
X49112524Y-23275000D01*
X49339918Y-23229769D01*
X49554119Y-23141044D01*
X49719601Y-23030472D01*
X49719601Y-23275774D01*
X49445437Y-23549939D01*
X49339918Y-23506231D01*
X49112524Y-23461000D01*
X48880676Y-23461000D01*
X48653282Y-23506231D01*
X48439081Y-23594956D01*
X48246306Y-23723764D01*
X48082364Y-23887706D01*
X47953556Y-24080481D01*
X47864831Y-24294682D01*
X47819600Y-24522076D01*
X47819600Y-24753924D01*
X47864831Y-24981318D01*
X47953556Y-25195519D01*
X48064127Y-25361001D01*
X45798205Y-25361001D01*
X45776000Y-25358814D01*
X45687393Y-25367541D01*
X45618980Y-25388294D01*
X45602191Y-25393387D01*
X45523668Y-25435358D01*
X45454842Y-25491842D01*
X45440686Y-25509091D01*
X45254782Y-25694995D01*
X45254782Y-25077800D01*
X45248468Y-25013697D01*
X45229770Y-24952057D01*
X45199406Y-24895250D01*
X45158543Y-24845457D01*
X45108750Y-24804594D01*
X45051943Y-24774230D01*
X44990303Y-24755532D01*
X44926200Y-24749218D01*
X42426200Y-24749218D01*
X42362097Y-24755532D01*
X42300457Y-24774230D01*
X42243650Y-24804594D01*
X42193857Y-24845457D01*
X42152994Y-24895250D01*
X42122630Y-24952057D01*
X42103932Y-25013697D01*
X42097618Y-25077800D01*
X42097618Y-26077800D01*
X42103932Y-26141903D01*
X42122630Y-26203543D01*
X42152994Y-26260350D01*
X42186189Y-26300799D01*
X41601608Y-26300799D01*
X41579403Y-26298612D01*
X41490795Y-26307339D01*
X41481552Y-26310143D01*
X41405593Y-26333185D01*
X41327070Y-26375156D01*
X41258244Y-26431640D01*
X41244084Y-26448894D01*
X38567179Y-29125800D01*
X27054782Y-29125800D01*
X27054782Y-29077800D01*
X27048468Y-29013697D01*
X27029770Y-28952057D01*
X26999406Y-28895250D01*
X26958543Y-28845457D01*
X26908750Y-28804594D01*
X26851943Y-28774230D01*
X26790303Y-28755532D01*
X26726200Y-28749218D01*
X24226200Y-28749218D01*
X24162097Y-28755532D01*
X24100457Y-28774230D01*
X24043650Y-28804594D01*
X23993857Y-28845457D01*
X23952994Y-28895250D01*
X23922630Y-28952057D01*
X23903932Y-29013697D01*
X23897618Y-29077800D01*
X23897618Y-30077800D01*
X23903932Y-30141903D01*
X23922630Y-30203543D01*
X23952994Y-30260350D01*
X23993857Y-30310143D01*
X24043650Y-30351006D01*
X24100457Y-30381370D01*
X24162097Y-30400068D01*
X24226200Y-30406382D01*
X26726200Y-30406382D01*
X26790303Y-30400068D01*
X26851943Y-30381370D01*
X26908750Y-30351006D01*
X26958543Y-30310143D01*
X26999406Y-30260350D01*
X27029770Y-30203543D01*
X27048468Y-30141903D01*
X27054782Y-30077800D01*
X27054782Y-30029800D01*
X38732197Y-30029800D01*
X38754402Y-30031987D01*
X38776607Y-30029800D01*
X38843009Y-30023260D01*
X38928212Y-29997414D01*
X39006735Y-29955443D01*
X39075561Y-29898959D01*
X39089725Y-29881700D01*
X41766627Y-27204799D01*
X42097618Y-27204799D01*
X42097618Y-28077800D01*
X42103932Y-28141903D01*
X42122630Y-28203543D01*
X42152994Y-28260350D01*
X42193857Y-28310143D01*
X42243650Y-28351006D01*
X42300457Y-28381370D01*
X42362097Y-28400068D01*
X42426200Y-28406382D01*
X44926200Y-28406382D01*
X44990303Y-28400068D01*
X45051943Y-28381370D01*
X45108750Y-28351006D01*
X45158543Y-28310143D01*
X45199406Y-28260350D01*
X45229770Y-28203543D01*
X45248468Y-28141903D01*
X45254782Y-28077800D01*
X45254782Y-27077800D01*
X45248468Y-27013697D01*
X45240569Y-26987656D01*
X45963226Y-26265001D01*
X47833918Y-26265001D01*
X47724959Y-26411080D01*
X47599775Y-26673901D01*
X47555124Y-26821110D01*
X47676445Y-27051000D01*
X48869600Y-27051000D01*
X48869600Y-27031000D01*
X49123600Y-27031000D01*
X49123600Y-27051000D01*
X49143600Y-27051000D01*
X49143600Y-27305000D01*
X49123600Y-27305000D01*
X49123600Y-27325000D01*
X48869600Y-27325000D01*
X48869600Y-27305000D01*
X47676445Y-27305000D01*
X47555124Y-27534890D01*
X47599775Y-27682099D01*
X47724959Y-27944920D01*
X47899012Y-28178269D01*
X48115245Y-28373178D01*
X48365348Y-28522157D01*
X48603779Y-28606736D01*
X48439081Y-28674956D01*
X48246306Y-28803764D01*
X48082364Y-28967706D01*
X47953556Y-29160481D01*
X47864831Y-29374682D01*
X47819600Y-29602076D01*
X47819600Y-29640778D01*
X47452721Y-29273900D01*
X47438557Y-29256641D01*
X47369731Y-29200157D01*
X47291208Y-29158186D01*
X47206005Y-29132340D01*
X47139603Y-29125800D01*
X47117398Y-29123613D01*
X47095193Y-29125800D01*
X45254782Y-29125800D01*
X45254782Y-29077800D01*
X45248468Y-29013697D01*
X45229770Y-28952057D01*
X45199406Y-28895250D01*
X45158543Y-28845457D01*
X45108750Y-28804594D01*
X45051943Y-28774230D01*
X44990303Y-28755532D01*
X44926200Y-28749218D01*
X42426200Y-28749218D01*
X42362097Y-28755532D01*
X42300457Y-28774230D01*
X42243650Y-28804594D01*
X42193857Y-28845457D01*
X42152994Y-28895250D01*
X42122630Y-28952057D01*
X42103932Y-29013697D01*
X42097618Y-29077800D01*
X42097618Y-30077800D01*
X42103932Y-30141903D01*
X42122630Y-30203543D01*
X42152994Y-30260350D01*
X42193857Y-30310143D01*
X42243650Y-30351006D01*
X42300457Y-30381370D01*
X42362097Y-30400068D01*
X42426200Y-30406382D01*
X44926200Y-30406382D01*
X44990303Y-30400068D01*
X45051943Y-30381370D01*
X45108750Y-30351006D01*
X45158543Y-30310143D01*
X45199406Y-30260350D01*
X45229770Y-30203543D01*
X45248468Y-30141903D01*
X45254782Y-30077800D01*
X45254782Y-30029800D01*
X46930175Y-30029800D01*
X48097284Y-31196911D01*
X48111440Y-31214160D01*
X48180266Y-31270644D01*
X48258789Y-31312615D01*
X48282266Y-31319737D01*
X48246306Y-31343764D01*
X48082364Y-31507706D01*
X47953556Y-31700481D01*
X47909849Y-31806000D01*
X45254782Y-31806000D01*
X45254782Y-31077800D01*
X45248468Y-31013697D01*
X45229770Y-30952057D01*
X45199406Y-30895250D01*
X45158543Y-30845457D01*
X45108750Y-30804594D01*
X45051943Y-30774230D01*
X44990303Y-30755532D01*
X44926200Y-30749218D01*
X42426200Y-30749218D01*
X42362097Y-30755532D01*
X42300457Y-30774230D01*
X42243650Y-30804594D01*
X42193857Y-30845457D01*
X42152994Y-30895250D01*
X42122630Y-30952057D01*
X42103932Y-31013697D01*
X42097618Y-31077800D01*
X42097618Y-32077800D01*
X42103932Y-32141903D01*
X42122630Y-32203543D01*
X42152994Y-32260350D01*
X42193857Y-32310143D01*
X42243650Y-32351006D01*
X42300457Y-32381370D01*
X42362097Y-32400068D01*
X42426200Y-32406382D01*
X43865558Y-32406382D01*
X44021085Y-32561910D01*
X44035241Y-32579159D01*
X44104067Y-32635643D01*
X44182590Y-32677614D01*
X44267792Y-32703460D01*
X44356399Y-32712187D01*
X44378604Y-32710000D01*
X47909849Y-32710000D01*
X47953556Y-32815519D01*
X48082364Y-33008294D01*
X48246306Y-33172236D01*
X48439081Y-33301044D01*
X48653282Y-33389769D01*
X48880676Y-33435000D01*
X49112524Y-33435000D01*
X49339918Y-33389769D01*
X49554119Y-33301044D01*
X49746894Y-33172236D01*
X49910836Y-33008294D01*
X50039644Y-32815519D01*
X50106801Y-32653388D01*
X50139775Y-32762099D01*
X50264959Y-33024920D01*
X50439012Y-33258269D01*
X50655245Y-33453178D01*
X50905348Y-33602157D01*
X51179709Y-33699481D01*
X51409600Y-33578814D01*
X51409600Y-32385000D01*
X51663600Y-32385000D01*
X51663600Y-33578814D01*
X51893491Y-33699481D01*
X52167852Y-33602157D01*
X52417955Y-33453178D01*
X52634188Y-33258269D01*
X52808241Y-33024920D01*
X52933425Y-32762099D01*
X52978076Y-32614890D01*
X52856755Y-32385000D01*
X51663600Y-32385000D01*
X51409600Y-32385000D01*
X51389600Y-32385000D01*
X51389600Y-32131000D01*
X51409600Y-32131000D01*
X51409600Y-32111000D01*
X51663600Y-32111000D01*
X51663600Y-32131000D01*
X52856755Y-32131000D01*
X52978076Y-31901110D01*
X52933425Y-31753901D01*
X52808241Y-31491080D01*
X52634188Y-31257731D01*
X52497922Y-31134903D01*
X53015512Y-30617315D01*
X53032760Y-30603160D01*
X53089244Y-30534334D01*
X53131215Y-30455811D01*
X53157061Y-30370608D01*
X53163601Y-30304206D01*
X53163601Y-30304205D01*
X53165788Y-30282002D01*
X53163601Y-30259799D01*
X53163601Y-21556203D01*
X53165788Y-21533998D01*
X53157061Y-21445391D01*
X53140989Y-21392410D01*
X53131215Y-21360189D01*
X53089244Y-21281666D01*
X53032760Y-21212840D01*
X53015511Y-21198684D01*
X52497922Y-20681097D01*
X52634188Y-20558269D01*
X52808241Y-20324920D01*
X52933425Y-20062099D01*
X52978076Y-19914890D01*
X52856755Y-19685000D01*
X51663600Y-19685000D01*
X51663600Y-19705000D01*
X51409600Y-19705000D01*
X51409600Y-19685000D01*
X51389600Y-19685000D01*
X51389600Y-19431000D01*
X51409600Y-19431000D01*
X51409600Y-19411000D01*
X51663600Y-19411000D01*
X51663600Y-19431000D01*
X52856755Y-19431000D01*
X52978076Y-19201110D01*
X52933425Y-19053901D01*
X52808241Y-18791080D01*
X52634188Y-18557731D01*
X52417955Y-18362822D01*
X52167852Y-18213843D01*
X51929421Y-18129264D01*
X52094119Y-18061044D01*
X52286894Y-17932236D01*
X52450836Y-17768294D01*
X52579644Y-17575519D01*
X52668369Y-17361318D01*
X52713600Y-17133924D01*
X52713600Y-16902076D01*
X52668369Y-16674682D01*
X52579644Y-16460481D01*
X52450836Y-16267706D01*
X52286894Y-16103764D01*
X52094119Y-15974956D01*
X51879918Y-15886231D01*
X51652524Y-15841000D01*
X51420676Y-15841000D01*
X51193282Y-15886231D01*
X50979081Y-15974956D01*
X50786306Y-16103764D01*
X50622364Y-16267706D01*
X50493556Y-16460481D01*
X50404831Y-16674682D01*
X50359600Y-16902076D01*
X50359600Y-17133924D01*
X50404831Y-17361318D01*
X50448539Y-17466838D01*
X50175182Y-17740195D01*
X50175182Y-16168000D01*
X50168868Y-16103897D01*
X50150170Y-16042257D01*
X50119806Y-15985450D01*
X50078943Y-15935657D01*
X50029150Y-15894794D01*
X49972343Y-15864430D01*
X49910703Y-15845732D01*
X49846600Y-15839418D01*
X48146600Y-15839418D01*
X48082497Y-15845732D01*
X48020857Y-15864430D01*
X47964050Y-15894794D01*
X47914257Y-15935657D01*
X47873394Y-15985450D01*
X47843030Y-16042257D01*
X47824332Y-16103897D01*
X47818018Y-16168000D01*
X47818018Y-16316000D01*
X44270470Y-16316000D01*
X44236000Y-16312605D01*
X44201530Y-16316000D01*
X44201520Y-16316000D01*
X44098384Y-16326158D01*
X43966057Y-16366299D01*
X43844103Y-16431485D01*
X43763992Y-16497230D01*
X43763989Y-16497233D01*
X43737210Y-16519210D01*
X43715233Y-16545989D01*
X43512004Y-16749218D01*
X42426200Y-16749218D01*
X42362097Y-16755532D01*
X42300457Y-16774230D01*
X42243650Y-16804594D01*
X42193857Y-16845457D01*
X42152994Y-16895250D01*
X42122630Y-16952057D01*
X42103932Y-17013697D01*
X42097618Y-17077800D01*
X42097618Y-18077800D01*
X42103932Y-18141903D01*
X42122630Y-18203543D01*
X42150669Y-18256001D01*
X30703205Y-18256001D01*
X30681000Y-18253814D01*
X30592393Y-18262541D01*
X30568988Y-18269641D01*
X30507191Y-18288387D01*
X30428668Y-18330358D01*
X30359842Y-18386842D01*
X30345687Y-18404090D01*
X27298981Y-21450798D01*
X27202452Y-21450798D01*
X27361200Y-21292050D01*
X27364272Y-21077800D01*
X27352012Y-20953318D01*
X27315702Y-20833620D01*
X27256737Y-20723306D01*
X27177385Y-20626615D01*
X27080694Y-20547263D01*
X26970380Y-20488298D01*
X26850682Y-20451988D01*
X26726200Y-20439728D01*
X25761950Y-20442800D01*
X25603200Y-20601550D01*
X25603200Y-21450800D01*
X25623200Y-21450800D01*
X25623200Y-21704800D01*
X25603200Y-21704800D01*
X25603200Y-21724800D01*
X25349200Y-21724800D01*
X25349200Y-21704800D01*
X23749950Y-21704800D01*
X23591200Y-21863550D01*
X23588128Y-22077800D01*
X23600388Y-22202282D01*
X23636698Y-22321980D01*
X23679984Y-22402962D01*
X23645040Y-22431640D01*
X23630876Y-22448899D01*
X23597299Y-22482476D01*
X23580040Y-22496640D01*
X23523556Y-22565467D01*
X23516328Y-22578990D01*
X23481585Y-22643990D01*
X23455739Y-22729192D01*
X23447012Y-22817799D01*
X22367146Y-22817799D01*
X22424699Y-22701990D01*
X22519322Y-22353131D01*
X22544067Y-21992516D01*
X22497985Y-21634002D01*
X22382846Y-21291367D01*
X22268693Y-21077800D01*
X23588128Y-21077800D01*
X23591200Y-21292050D01*
X23749950Y-21450800D01*
X25349200Y-21450800D01*
X25349200Y-20601550D01*
X25190450Y-20442800D01*
X24226200Y-20439728D01*
X24101718Y-20451988D01*
X23982020Y-20488298D01*
X23871706Y-20547263D01*
X23775015Y-20626615D01*
X23695663Y-20723306D01*
X23636698Y-20833620D01*
X23600388Y-20953318D01*
X23588128Y-21077800D01*
X22268693Y-21077800D01*
X22263836Y-21068714D01*
X21978980Y-20948826D01*
X20880605Y-22047200D01*
X20521395Y-22047200D01*
X19423020Y-20948826D01*
X19138164Y-21068714D01*
X18977301Y-21392410D01*
X18882678Y-21741269D01*
X18857933Y-22101884D01*
X17456562Y-22101884D01*
X17464067Y-21992516D01*
X17417985Y-21634002D01*
X17302846Y-21291367D01*
X17183836Y-21068714D01*
X16898980Y-20948826D01*
X15800605Y-22047200D01*
X15441395Y-22047200D01*
X14343020Y-20948826D01*
X14058164Y-21068714D01*
X13897301Y-21392410D01*
X13802678Y-21741269D01*
X13777933Y-22101884D01*
X13051600Y-22101884D01*
X13051600Y-20769220D01*
X14522626Y-20769220D01*
X15621000Y-21867595D01*
X16719374Y-20769220D01*
X16599486Y-20484364D01*
X16275790Y-20323501D01*
X15926931Y-20228878D01*
X15566316Y-20204133D01*
X15207802Y-20250215D01*
X14865167Y-20365354D01*
X14642514Y-20484364D01*
X14522626Y-20769220D01*
X13051600Y-20769220D01*
X13051600Y-19356804D01*
X16634000Y-19356804D01*
X16634000Y-19657596D01*
X16692681Y-19952610D01*
X16807790Y-20230506D01*
X16974901Y-20480606D01*
X17187594Y-20693299D01*
X17437694Y-20860410D01*
X17715590Y-20975519D01*
X18010604Y-21034200D01*
X18311396Y-21034200D01*
X18606410Y-20975519D01*
X18884306Y-20860410D01*
X19134406Y-20693299D01*
X19347099Y-20480606D01*
X19381046Y-20429800D01*
X19824596Y-20429800D01*
X19722514Y-20484364D01*
X19602626Y-20769220D01*
X20701000Y-21867595D01*
X21799374Y-20769220D01*
X21679486Y-20484364D01*
X21569690Y-20429800D01*
X25518052Y-20429800D01*
X25643221Y-20417472D01*
X25679780Y-20406382D01*
X26726200Y-20406382D01*
X26790303Y-20400068D01*
X26851943Y-20381370D01*
X26908750Y-20351006D01*
X26958543Y-20310143D01*
X26999406Y-20260350D01*
X27029770Y-20203543D01*
X27048468Y-20141903D01*
X27054782Y-20077800D01*
X27054782Y-19077800D01*
X27048468Y-19013697D01*
X27029770Y-18952057D01*
X26999406Y-18895250D01*
X26958543Y-18845457D01*
X26908750Y-18804594D01*
X26851943Y-18774230D01*
X26790303Y-18755532D01*
X26726200Y-18749218D01*
X25679780Y-18749218D01*
X25643221Y-18738128D01*
X25518052Y-18725800D01*
X21228426Y-18725800D01*
X21456833Y-18649046D01*
X21679486Y-18530036D01*
X21799374Y-18245180D01*
X21631995Y-18077800D01*
X23588128Y-18077800D01*
X23600388Y-18202282D01*
X23636698Y-18321980D01*
X23695663Y-18432294D01*
X23775015Y-18528985D01*
X23871706Y-18608337D01*
X23982020Y-18667302D01*
X24101718Y-18703612D01*
X24226200Y-18715872D01*
X25190450Y-18712800D01*
X25349200Y-18554050D01*
X25349200Y-17704800D01*
X25603200Y-17704800D01*
X25603200Y-18554050D01*
X25761950Y-18712800D01*
X26726200Y-18715872D01*
X26850682Y-18703612D01*
X26970380Y-18667302D01*
X27080694Y-18608337D01*
X27177385Y-18528985D01*
X27256737Y-18432294D01*
X27315702Y-18321980D01*
X27352012Y-18202282D01*
X27364272Y-18077800D01*
X27361200Y-17863550D01*
X27202450Y-17704800D01*
X25603200Y-17704800D01*
X25349200Y-17704800D01*
X23749950Y-17704800D01*
X23591200Y-17863550D01*
X23588128Y-18077800D01*
X21631995Y-18077800D01*
X20701000Y-17146805D01*
X19602626Y-18245180D01*
X19722514Y-18530036D01*
X20046210Y-18690899D01*
X20174884Y-18725800D01*
X19475393Y-18725800D01*
X19347099Y-18533794D01*
X19134406Y-18321101D01*
X18884306Y-18153990D01*
X18606410Y-18038881D01*
X18311396Y-17980200D01*
X18010604Y-17980200D01*
X17715590Y-18038881D01*
X17437694Y-18153990D01*
X17187594Y-18321101D01*
X16974901Y-18533794D01*
X16807790Y-18783894D01*
X16692681Y-19061790D01*
X16634000Y-19356804D01*
X13051600Y-19356804D01*
X13051600Y-18245180D01*
X14522626Y-18245180D01*
X14642514Y-18530036D01*
X14966210Y-18690899D01*
X15315069Y-18785522D01*
X15675684Y-18810267D01*
X16034198Y-18764185D01*
X16376833Y-18649046D01*
X16599486Y-18530036D01*
X16719374Y-18245180D01*
X15621000Y-17146805D01*
X14522626Y-18245180D01*
X13051600Y-18245180D01*
X13051600Y-17021884D01*
X13777933Y-17021884D01*
X13824015Y-17380398D01*
X13939154Y-17723033D01*
X14058164Y-17945686D01*
X14343020Y-18065574D01*
X15441395Y-16967200D01*
X15800605Y-16967200D01*
X16898980Y-18065574D01*
X17183836Y-17945686D01*
X17344699Y-17621990D01*
X17439322Y-17273131D01*
X17456562Y-17021884D01*
X18857933Y-17021884D01*
X18904015Y-17380398D01*
X19019154Y-17723033D01*
X19138164Y-17945686D01*
X19423020Y-18065574D01*
X20521395Y-16967200D01*
X20880605Y-16967200D01*
X21978980Y-18065574D01*
X22263836Y-17945686D01*
X22424699Y-17621990D01*
X22519322Y-17273131D01*
X22532725Y-17077800D01*
X23588128Y-17077800D01*
X23591200Y-17292050D01*
X23749950Y-17450800D01*
X25349200Y-17450800D01*
X25349200Y-16601550D01*
X25603200Y-16601550D01*
X25603200Y-17450800D01*
X27202450Y-17450800D01*
X27361200Y-17292050D01*
X27364272Y-17077800D01*
X27352012Y-16953318D01*
X27315702Y-16833620D01*
X27256737Y-16723306D01*
X27177385Y-16626615D01*
X27080694Y-16547263D01*
X26970380Y-16488298D01*
X26850682Y-16451988D01*
X26726200Y-16439728D01*
X25761950Y-16442800D01*
X25603200Y-16601550D01*
X25349200Y-16601550D01*
X25190450Y-16442800D01*
X24226200Y-16439728D01*
X24101718Y-16451988D01*
X23982020Y-16488298D01*
X23871706Y-16547263D01*
X23775015Y-16626615D01*
X23695663Y-16723306D01*
X23636698Y-16833620D01*
X23600388Y-16953318D01*
X23588128Y-17077800D01*
X22532725Y-17077800D01*
X22544067Y-16912516D01*
X22497985Y-16554002D01*
X22382846Y-16211367D01*
X22263836Y-15988714D01*
X21978980Y-15868826D01*
X20880605Y-16967200D01*
X20521395Y-16967200D01*
X19423020Y-15868826D01*
X19138164Y-15988714D01*
X18977301Y-16312410D01*
X18882678Y-16661269D01*
X18857933Y-17021884D01*
X17456562Y-17021884D01*
X17464067Y-16912516D01*
X17417985Y-16554002D01*
X17302846Y-16211367D01*
X17183836Y-15988714D01*
X16898980Y-15868826D01*
X15800605Y-16967200D01*
X15441395Y-16967200D01*
X14343020Y-15868826D01*
X14058164Y-15988714D01*
X13897301Y-16312410D01*
X13802678Y-16661269D01*
X13777933Y-17021884D01*
X13051600Y-17021884D01*
X13051600Y-15689220D01*
X14522626Y-15689220D01*
X15621000Y-16787595D01*
X16719374Y-15689220D01*
X19602626Y-15689220D01*
X20701000Y-16787595D01*
X21799374Y-15689220D01*
X21679486Y-15404364D01*
X21355790Y-15243501D01*
X21006931Y-15148878D01*
X20646316Y-15124133D01*
X20287802Y-15170215D01*
X19945167Y-15285354D01*
X19722514Y-15404364D01*
X19602626Y-15689220D01*
X16719374Y-15689220D01*
X16599486Y-15404364D01*
X16275790Y-15243501D01*
X15926931Y-15148878D01*
X15566316Y-15124133D01*
X15207802Y-15170215D01*
X14865167Y-15285354D01*
X14642514Y-15404364D01*
X14522626Y-15689220D01*
X13051600Y-15689220D01*
X13051600Y-13966000D01*
X54842600Y-13966000D01*
X54842601Y-35259200D01*
G37*
%TD.AperFunction*%
D19*
X42097618Y-21950801D02*
X40693806Y-21950801D01*
X40671601Y-21948614D01*
X40582993Y-21957341D01*
X40501453Y-21982076D01*
X40497791Y-21983187D01*
X40419268Y-22025158D01*
X40350442Y-22081642D01*
X40336282Y-22098896D01*
X37309379Y-25125800D01*
X27054782Y-25125800D01*
X27054782Y-25077800D01*
X27048468Y-25013697D01*
X27029770Y-24952057D01*
X26999406Y-24895250D01*
X26958543Y-24845457D01*
X26908750Y-24804594D01*
X26851943Y-24774230D01*
X26790303Y-24755532D01*
X26726200Y-24749218D01*
X24353199Y-24749218D01*
X24353199Y-24406382D01*
X26726200Y-24406382D01*
X26790303Y-24400068D01*
X26851943Y-24381370D01*
X26908750Y-24351006D01*
X26958543Y-24310143D01*
X26999406Y-24260350D01*
X27029770Y-24203543D01*
X27048468Y-24141903D01*
X27054782Y-24077800D01*
X27054782Y-24024247D01*
X27064807Y-24023260D01*
X27150010Y-23997414D01*
X27228533Y-23955443D01*
X27297359Y-23898959D01*
X27311523Y-23881700D01*
X29988425Y-21204799D01*
X42097618Y-21204799D01*
X42097618Y-21950801D01*
%TA.AperFunction,Conductor*%
D20*
G36*
X42097618Y-21950801D02*
G01*
X40693806Y-21950801D01*
X40671601Y-21948614D01*
X40582993Y-21957341D01*
X40501453Y-21982076D01*
X40497791Y-21983187D01*
X40419268Y-22025158D01*
X40350442Y-22081642D01*
X40336282Y-22098896D01*
X37309379Y-25125800D01*
X27054782Y-25125800D01*
X27054782Y-25077800D01*
X27048468Y-25013697D01*
X27029770Y-24952057D01*
X26999406Y-24895250D01*
X26958543Y-24845457D01*
X26908750Y-24804594D01*
X26851943Y-24774230D01*
X26790303Y-24755532D01*
X26726200Y-24749218D01*
X24353199Y-24749218D01*
X24353199Y-24406382D01*
X26726200Y-24406382D01*
X26790303Y-24400068D01*
X26851943Y-24381370D01*
X26908750Y-24351006D01*
X26958543Y-24310143D01*
X26999406Y-24260350D01*
X27029770Y-24203543D01*
X27048468Y-24141903D01*
X27054782Y-24077800D01*
X27054782Y-24024247D01*
X27064807Y-24023260D01*
X27150010Y-23997414D01*
X27228533Y-23955443D01*
X27297359Y-23898959D01*
X27311523Y-23881700D01*
X29988425Y-21204799D01*
X42097618Y-21204799D01*
X42097618Y-21950801D01*
G37*
%TD.AperFunction*%
D19*
X48082364Y-21347706D02*
X47953556Y-21540481D01*
X47864831Y-21754682D01*
X47825821Y-21950801D01*
X45254782Y-21950801D01*
X45254782Y-21204799D01*
X48225271Y-21204799D01*
X48082364Y-21347706D01*
%TA.AperFunction,Conductor*%
D20*
G36*
X48082364Y-21347706D02*
G01*
X47953556Y-21540481D01*
X47864831Y-21754682D01*
X47825821Y-21950801D01*
X45254782Y-21950801D01*
X45254782Y-21204799D01*
X48225271Y-21204799D01*
X48082364Y-21347706D01*
G37*
%TD.AperFunction*%
D19*
X42097618Y-20077800D02*
X42103932Y-20141903D01*
X42122630Y-20203543D01*
X42152994Y-20260350D01*
X42186189Y-20300799D01*
X29823406Y-20300799D01*
X29801201Y-20298612D01*
X29721794Y-20306433D01*
X30868226Y-19160001D01*
X42097618Y-19160001D01*
X42097618Y-20077800D01*
%TA.AperFunction,Conductor*%
D20*
G36*
X42097618Y-20077800D02*
G01*
X42103932Y-20141903D01*
X42122630Y-20203543D01*
X42152994Y-20260350D01*
X42186189Y-20300799D01*
X29823406Y-20300799D01*
X29801201Y-20298612D01*
X29721794Y-20306433D01*
X30868226Y-19160001D01*
X42097618Y-19160001D01*
X42097618Y-20077800D01*
G37*
%TD.AperFunction*%
D19*
X47864831Y-19214682D02*
X47819600Y-19442076D01*
X47819600Y-19673924D01*
X47864831Y-19901318D01*
X47953556Y-20115519D01*
X48077356Y-20300799D01*
X45166211Y-20300799D01*
X45199406Y-20260350D01*
X45229770Y-20203543D01*
X45248468Y-20141903D01*
X45254782Y-20077800D01*
X45254782Y-19160001D01*
X47887481Y-19160001D01*
X47864831Y-19214682D01*
%TA.AperFunction,Conductor*%
D20*
G36*
X47864831Y-19214682D02*
G01*
X47819600Y-19442076D01*
X47819600Y-19673924D01*
X47864831Y-19901318D01*
X47953556Y-20115519D01*
X48077356Y-20300799D01*
X45166211Y-20300799D01*
X45199406Y-20260350D01*
X45229770Y-20203543D01*
X45248468Y-20141903D01*
X45254782Y-20077800D01*
X45254782Y-19160001D01*
X47887481Y-19160001D01*
X47864831Y-19214682D01*
G37*
%TD.AperFunction*%
D19*
X47818018Y-17868000D02*
X47824332Y-17932103D01*
X47843030Y-17993743D01*
X47873394Y-18050550D01*
X47914257Y-18100343D01*
X47964050Y-18141206D01*
X48020857Y-18171570D01*
X48082497Y-18190268D01*
X48146600Y-18196582D01*
X49846600Y-18196582D01*
X49907652Y-18190569D01*
X49907412Y-18193001D01*
X49909600Y-18215216D01*
X49909600Y-18806470D01*
X49746894Y-18643764D01*
X49554119Y-18514956D01*
X49339918Y-18426231D01*
X49112524Y-18381000D01*
X48880676Y-18381000D01*
X48653282Y-18426231D01*
X48547762Y-18469939D01*
X48481924Y-18404101D01*
X48467760Y-18386842D01*
X48398934Y-18330358D01*
X48320411Y-18288387D01*
X48235208Y-18262541D01*
X48168806Y-18256001D01*
X48146601Y-18253814D01*
X48124396Y-18256001D01*
X45201731Y-18256001D01*
X45229770Y-18203543D01*
X45248468Y-18141903D01*
X45254782Y-18077800D01*
X45254782Y-17720000D01*
X47818018Y-17720000D01*
X47818018Y-17868000D01*
%TA.AperFunction,Conductor*%
D20*
G36*
X47818018Y-17868000D02*
G01*
X47824332Y-17932103D01*
X47843030Y-17993743D01*
X47873394Y-18050550D01*
X47914257Y-18100343D01*
X47964050Y-18141206D01*
X48020857Y-18171570D01*
X48082497Y-18190268D01*
X48146600Y-18196582D01*
X49846600Y-18196582D01*
X49907652Y-18190569D01*
X49907412Y-18193001D01*
X49909600Y-18215216D01*
X49909600Y-18806470D01*
X49746894Y-18643764D01*
X49554119Y-18514956D01*
X49339918Y-18426231D01*
X49112524Y-18381000D01*
X48880676Y-18381000D01*
X48653282Y-18426231D01*
X48547762Y-18469939D01*
X48481924Y-18404101D01*
X48467760Y-18386842D01*
X48398934Y-18330358D01*
X48320411Y-18288387D01*
X48235208Y-18262541D01*
X48168806Y-18256001D01*
X48146601Y-18253814D01*
X48124396Y-18256001D01*
X45201731Y-18256001D01*
X45229770Y-18203543D01*
X45248468Y-18141903D01*
X45254782Y-18077800D01*
X45254782Y-17720000D01*
X47818018Y-17720000D01*
X47818018Y-17868000D01*
G37*
%TD.AperFunction*%
%TD*%
D19*
%TO.N,GND*%
X21183600Y-18676008D02*
X21183600Y-18719800D01*
X20245656Y-18719800D01*
X20181544Y-18630042D01*
X21183600Y-18676008D01*
%TA.AperFunction,Conductor*%
D20*
G36*
X21183600Y-18676008D02*
G01*
X21183600Y-18719800D01*
X20245656Y-18719800D01*
X20181544Y-18630042D01*
X21183600Y-18676008D01*
G37*
%TD.AperFunction*%
%TD*%
D21*
X21753000Y-20641722D02*
X21277722Y-20633273D01*
X21146410Y-20578881D01*
X20851396Y-20520200D01*
X20550604Y-20520200D01*
X20255590Y-20578881D01*
X20171745Y-20613611D01*
X19757000Y-20606238D01*
X19757000Y-20429800D01*
X21753000Y-20429800D01*
X21753000Y-20641722D01*
%TA.AperFunction,NonConductor*%
D22*
G36*
X21753000Y-20641722D02*
G01*
X21277722Y-20633273D01*
X21146410Y-20578881D01*
X20851396Y-20520200D01*
X20550604Y-20520200D01*
X20255590Y-20578881D01*
X20171745Y-20613611D01*
X19757000Y-20606238D01*
X19757000Y-20429800D01*
X21753000Y-20429800D01*
X21753000Y-20641722D01*
G37*
%TD.AperFunction*%
M02*
