%TF.GenerationSoftware,KiCad,Pcbnew,(5.1.9-0-10_14)*%
%TF.CreationDate,2021-04-20T21:20:53+01:00*%
%TF.ProjectId,pi-hat,70692d68-6174-42e6-9b69-6361645f7063,rev?*%
%TF.SameCoordinates,Original*%
%TF.FileFunction,Legend,Top*%
%TF.FilePolarity,Positive*%
%FSLAX46Y46*%
G04 Gerber Fmt 4.6, Leading zero omitted, Abs format (unit mm)*
G04 Created by KiCad (PCBNEW (5.1.9-0-10_14)) date 2021-04-20 21:20:53*
%MOMM*%
%LPD*%
G01*
G04 APERTURE LIST*
%ADD10C,0.153000*%
%ADD11C,0.100000*%
%ADD12C,0.120000*%
%ADD13C,0.010000*%
%ADD14C,0.150000*%
G04 APERTURE END LIST*
D10*
X41174561Y-30992819D02*
X41507895Y-31469009D01*
X41745990Y-30992819D02*
X41745990Y-31992819D01*
X41365038Y-31992819D01*
X41269800Y-31945200D01*
X41222180Y-31897580D01*
X41174561Y-31802342D01*
X41174561Y-31659485D01*
X41222180Y-31564247D01*
X41269800Y-31516628D01*
X41365038Y-31469009D01*
X41745990Y-31469009D01*
X40412657Y-31516628D02*
X40745990Y-31516628D01*
X40745990Y-30992819D02*
X40745990Y-31992819D01*
X40269800Y-31992819D01*
X39888847Y-30992819D02*
X39888847Y-31992819D01*
X39555514Y-31278533D01*
X39222180Y-31992819D01*
X39222180Y-30992819D01*
X38317419Y-31992819D02*
X38507895Y-31992819D01*
X38603133Y-31945200D01*
X38650752Y-31897580D01*
X38745990Y-31754723D01*
X38793609Y-31564247D01*
X38793609Y-31183295D01*
X38745990Y-31088057D01*
X38698371Y-31040438D01*
X38603133Y-30992819D01*
X38412657Y-30992819D01*
X38317419Y-31040438D01*
X38269800Y-31088057D01*
X38222180Y-31183295D01*
X38222180Y-31421390D01*
X38269800Y-31516628D01*
X38317419Y-31564247D01*
X38412657Y-31611866D01*
X38603133Y-31611866D01*
X38698371Y-31564247D01*
X38745990Y-31516628D01*
X38793609Y-31421390D01*
X37745990Y-30992819D02*
X37555514Y-30992819D01*
X37460276Y-31040438D01*
X37412657Y-31088057D01*
X37317419Y-31230914D01*
X37269800Y-31421390D01*
X37269800Y-31802342D01*
X37317419Y-31897580D01*
X37365038Y-31945200D01*
X37460276Y-31992819D01*
X37650752Y-31992819D01*
X37745990Y-31945200D01*
X37793609Y-31897580D01*
X37841228Y-31802342D01*
X37841228Y-31564247D01*
X37793609Y-31469009D01*
X37745990Y-31421390D01*
X37650752Y-31373771D01*
X37460276Y-31373771D01*
X37365038Y-31421390D01*
X37317419Y-31469009D01*
X37269800Y-31564247D01*
X36555514Y-30611866D02*
X36603133Y-30659485D01*
X36698371Y-30802342D01*
X36745990Y-30897580D01*
X36793609Y-31040438D01*
X36841228Y-31278533D01*
X36841228Y-31469009D01*
X36793609Y-31707104D01*
X36745990Y-31849961D01*
X36698371Y-31945200D01*
X36603133Y-32088057D01*
X36555514Y-32135676D01*
X36174561Y-30992819D02*
X36174561Y-31992819D01*
X36174561Y-31516628D02*
X35603133Y-31516628D01*
X35603133Y-30992819D02*
X35603133Y-31992819D01*
X35222180Y-30611866D02*
X35174561Y-30659485D01*
X35079323Y-30802342D01*
X35031704Y-30897580D01*
X34984085Y-31040438D01*
X34936466Y-31278533D01*
X34936466Y-31469009D01*
X34984085Y-31707104D01*
X35031704Y-31849961D01*
X35079323Y-31945200D01*
X35174561Y-32088057D01*
X35222180Y-32135676D01*
X34555514Y-31992819D02*
X34317419Y-30992819D01*
X34126942Y-31707104D01*
X33936466Y-30992819D01*
X33698371Y-31992819D01*
D11*
%TO.C,U1*%
X44626200Y-32777800D02*
X44626200Y-32377800D01*
X24526200Y-32777800D02*
X24526200Y-32377800D01*
X25026200Y-32777800D02*
X24526200Y-32777800D01*
X24526200Y-16777800D02*
X24526200Y-16377800D01*
X25026200Y-16377800D02*
X24526200Y-16377800D01*
X44626200Y-16777800D02*
X44626200Y-16377800D01*
X44626200Y-16377800D02*
X44126200Y-16377800D01*
X44626200Y-32777800D02*
X34626200Y-32777800D01*
D12*
%TO.C,Pi 17-30*%
X47666600Y-15688000D02*
X48996600Y-15688000D01*
X47666600Y-17018000D02*
X47666600Y-15688000D01*
X50266600Y-15688000D02*
X52866600Y-15688000D01*
X50266600Y-18288000D02*
X50266600Y-15688000D01*
X47666600Y-18288000D02*
X50266600Y-18288000D01*
X52866600Y-15688000D02*
X52866600Y-33588000D01*
X47666600Y-18288000D02*
X47666600Y-33588000D01*
X47666600Y-33588000D02*
X52866600Y-33588000D01*
D13*
%TO.C,G\u002A\u002A\u002A*%
G36*
X18315723Y-28335104D02*
G01*
X18393659Y-28335724D01*
X18467369Y-28336854D01*
X18534151Y-28338493D01*
X18591303Y-28340637D01*
X18636124Y-28343282D01*
X18665912Y-28346427D01*
X18677841Y-28349891D01*
X18682150Y-28362632D01*
X18689596Y-28393127D01*
X18699715Y-28439132D01*
X18712042Y-28498403D01*
X18726112Y-28568697D01*
X18741463Y-28647768D01*
X18757628Y-28733373D01*
X18761413Y-28753751D01*
X18782404Y-28865654D01*
X18800397Y-28958310D01*
X18815572Y-29032541D01*
X18828109Y-29089170D01*
X18838188Y-29129020D01*
X18845989Y-29152913D01*
X18850387Y-29160792D01*
X18863482Y-29168491D01*
X18892491Y-29182423D01*
X18934430Y-29201347D01*
X18986319Y-29224021D01*
X19045174Y-29249206D01*
X19108014Y-29275660D01*
X19171856Y-29302142D01*
X19233719Y-29327412D01*
X19290620Y-29350228D01*
X19339578Y-29369351D01*
X19377609Y-29383539D01*
X19401733Y-29391551D01*
X19408177Y-29392880D01*
X19419375Y-29387304D01*
X19445416Y-29371395D01*
X19484432Y-29346383D01*
X19534555Y-29313495D01*
X19593918Y-29273962D01*
X19660653Y-29229011D01*
X19732892Y-29179871D01*
X19756707Y-29163571D01*
X19852646Y-29098198D01*
X19932662Y-29044530D01*
X19997229Y-29002267D01*
X20046818Y-28971110D01*
X20081904Y-28950758D01*
X20102957Y-28940913D01*
X20109287Y-28939987D01*
X20121117Y-28948541D01*
X20144901Y-28969617D01*
X20178747Y-29001308D01*
X20220759Y-29041705D01*
X20269046Y-29088903D01*
X20321712Y-29140992D01*
X20376865Y-29196066D01*
X20432610Y-29252218D01*
X20487055Y-29307540D01*
X20538305Y-29360125D01*
X20584467Y-29408065D01*
X20623648Y-29449452D01*
X20653953Y-29482380D01*
X20673490Y-29504942D01*
X20680364Y-29515225D01*
X20674705Y-29526644D01*
X20658710Y-29552851D01*
X20633629Y-29591946D01*
X20600717Y-29642025D01*
X20561224Y-29701187D01*
X20516404Y-29767530D01*
X20467508Y-29839151D01*
X20456844Y-29854678D01*
X20407232Y-29927276D01*
X20361452Y-29995112D01*
X20320757Y-30056268D01*
X20286400Y-30108822D01*
X20259633Y-30150854D01*
X20241710Y-30180444D01*
X20233883Y-30195670D01*
X20233640Y-30196846D01*
X20237596Y-30211067D01*
X20248635Y-30240925D01*
X20265511Y-30283523D01*
X20286979Y-30335962D01*
X20311794Y-30395345D01*
X20338711Y-30458773D01*
X20366484Y-30523349D01*
X20393869Y-30586175D01*
X20419619Y-30644353D01*
X20442490Y-30694985D01*
X20461237Y-30735173D01*
X20474613Y-30762019D01*
X20480890Y-30772244D01*
X20493917Y-30777304D01*
X20524908Y-30785461D01*
X20571813Y-30796276D01*
X20632585Y-30809310D01*
X20705178Y-30824122D01*
X20787543Y-30840274D01*
X20873745Y-30856601D01*
X20959268Y-30872762D01*
X21038758Y-30888213D01*
X21109935Y-30902479D01*
X21170521Y-30915085D01*
X21218237Y-30925555D01*
X21250805Y-30933415D01*
X21265945Y-30938188D01*
X21266504Y-30938548D01*
X21270115Y-30951456D01*
X21273230Y-30981977D01*
X21275847Y-31027409D01*
X21277962Y-31085050D01*
X21279572Y-31152199D01*
X21280675Y-31226155D01*
X21281266Y-31304216D01*
X21281344Y-31383680D01*
X21280905Y-31461846D01*
X21279946Y-31536013D01*
X21278464Y-31603479D01*
X21276457Y-31661542D01*
X21273920Y-31707501D01*
X21270851Y-31738654D01*
X21267420Y-31752102D01*
X21256738Y-31758038D01*
X21231996Y-31765841D01*
X21192158Y-31775739D01*
X21136191Y-31787959D01*
X21063061Y-31802729D01*
X20971732Y-31820278D01*
X20883880Y-31836654D01*
X20799392Y-31852428D01*
X20721027Y-31867421D01*
X20651078Y-31881166D01*
X20591838Y-31893198D01*
X20545602Y-31903051D01*
X20514661Y-31910257D01*
X20501309Y-31914352D01*
X20501142Y-31914468D01*
X20494521Y-31925974D01*
X20481714Y-31953642D01*
X20463846Y-31994675D01*
X20442044Y-32046276D01*
X20417434Y-32105648D01*
X20391142Y-32169994D01*
X20364294Y-32236518D01*
X20338016Y-32302423D01*
X20313434Y-32364912D01*
X20291674Y-32421187D01*
X20273862Y-32468452D01*
X20261124Y-32503911D01*
X20254586Y-32524766D01*
X20253960Y-32528421D01*
X20259538Y-32540311D01*
X20275411Y-32566910D01*
X20300289Y-32606234D01*
X20332881Y-32656299D01*
X20371894Y-32715121D01*
X20416038Y-32780717D01*
X20463015Y-32849635D01*
X20511119Y-32919952D01*
X20555635Y-32985366D01*
X20595235Y-33043896D01*
X20628588Y-33093564D01*
X20654366Y-33132389D01*
X20671239Y-33158393D01*
X20677847Y-33169512D01*
X20672354Y-33180260D01*
X20654010Y-33203136D01*
X20624687Y-33236267D01*
X20586259Y-33277776D01*
X20540597Y-33325790D01*
X20489574Y-33378432D01*
X20435063Y-33433828D01*
X20378937Y-33490103D01*
X20323068Y-33545383D01*
X20269329Y-33597792D01*
X20219594Y-33645454D01*
X20175733Y-33686497D01*
X20139621Y-33719043D01*
X20113130Y-33741220D01*
X20098132Y-33751150D01*
X20096548Y-33751505D01*
X20082819Y-33745911D01*
X20055001Y-33730190D01*
X20015613Y-33705926D01*
X19967174Y-33674700D01*
X19912203Y-33638096D01*
X19867880Y-33607842D01*
X19803583Y-33563587D01*
X19738512Y-33518965D01*
X19676563Y-33476631D01*
X19621628Y-33439247D01*
X19577604Y-33409470D01*
X19561231Y-33398486D01*
X19462863Y-33332781D01*
X19310143Y-33412610D01*
X19253680Y-33441861D01*
X19212349Y-33462428D01*
X19183440Y-33475355D01*
X19164244Y-33481685D01*
X19152052Y-33482463D01*
X19144156Y-33478732D01*
X19142518Y-33477200D01*
X19135910Y-33465105D01*
X19122463Y-33436064D01*
X19102956Y-33391959D01*
X19078167Y-33334670D01*
X19048872Y-33266079D01*
X19015851Y-33188067D01*
X18979881Y-33102514D01*
X18941740Y-33011303D01*
X18902206Y-32916313D01*
X18862057Y-32819427D01*
X18822071Y-32722525D01*
X18783026Y-32627488D01*
X18745699Y-32536197D01*
X18710870Y-32450534D01*
X18679314Y-32372380D01*
X18651812Y-32303616D01*
X18629140Y-32246122D01*
X18612076Y-32201780D01*
X18601399Y-32172471D01*
X18597880Y-32160230D01*
X18604162Y-32145377D01*
X18624230Y-32125671D01*
X18659913Y-32099470D01*
X18681700Y-32085028D01*
X18722808Y-32055560D01*
X18771389Y-32016430D01*
X18821142Y-31972917D01*
X18862571Y-31933511D01*
X18905191Y-31889863D01*
X18936858Y-31854211D01*
X18961699Y-31820925D01*
X18983838Y-31784377D01*
X19007400Y-31738939D01*
X19011965Y-31729680D01*
X19045781Y-31657197D01*
X19069896Y-31595081D01*
X19085850Y-31536770D01*
X19095182Y-31475705D01*
X19099434Y-31405322D01*
X19100195Y-31353760D01*
X19099773Y-31291118D01*
X19097582Y-31242816D01*
X19093001Y-31202903D01*
X19085406Y-31165431D01*
X19077350Y-31135320D01*
X19031561Y-31011061D01*
X18969239Y-30897533D01*
X18891699Y-30796025D01*
X18800250Y-30707824D01*
X18696207Y-30634219D01*
X18580879Y-30576499D01*
X18470880Y-30539810D01*
X18389813Y-30524782D01*
X18298319Y-30518009D01*
X18204331Y-30519485D01*
X18115783Y-30529205D01*
X18064480Y-30540054D01*
X17944463Y-30581647D01*
X17834035Y-30639393D01*
X17734410Y-30711527D01*
X17646805Y-30796287D01*
X17572436Y-30891905D01*
X17512519Y-30996619D01*
X17468271Y-31108663D01*
X17440908Y-31226273D01*
X17431645Y-31347683D01*
X17438368Y-31448524D01*
X17463661Y-31575482D01*
X17504929Y-31691821D01*
X17562965Y-31798795D01*
X17638560Y-31897657D01*
X17732505Y-31989660D01*
X17825720Y-32062235D01*
X17866543Y-32091707D01*
X17901316Y-32117868D01*
X17926623Y-32138072D01*
X17939049Y-32149675D01*
X17939516Y-32150370D01*
X17940888Y-32152939D01*
X17941681Y-32156156D01*
X17941408Y-32161246D01*
X17939585Y-32169433D01*
X17935726Y-32181941D01*
X17929346Y-32199997D01*
X17919960Y-32224823D01*
X17907083Y-32257645D01*
X17890228Y-32299688D01*
X17868911Y-32352176D01*
X17842646Y-32416333D01*
X17810948Y-32493385D01*
X17773332Y-32584555D01*
X17729312Y-32691069D01*
X17678403Y-32814151D01*
X17632119Y-32926024D01*
X17576854Y-33059038D01*
X17528839Y-33173388D01*
X17487952Y-33269350D01*
X17454072Y-33347198D01*
X17427079Y-33407204D01*
X17406852Y-33449644D01*
X17393271Y-33474791D01*
X17386649Y-33482858D01*
X17370795Y-33480260D01*
X17340006Y-33468298D01*
X17296769Y-33448069D01*
X17243568Y-33420668D01*
X17234249Y-33415665D01*
X17185425Y-33390052D01*
X17141480Y-33368364D01*
X17106139Y-33352338D01*
X17083124Y-33343708D01*
X17077765Y-33342701D01*
X17064625Y-33348272D01*
X17036876Y-33364167D01*
X16996570Y-33389073D01*
X16945755Y-33421676D01*
X16886483Y-33460665D01*
X16820802Y-33504726D01*
X16758752Y-33547050D01*
X16689101Y-33594517D01*
X16624044Y-33638085D01*
X16565628Y-33676439D01*
X16515903Y-33708266D01*
X16476918Y-33732253D01*
X16450724Y-33747084D01*
X16439837Y-33751520D01*
X16426630Y-33744662D01*
X16400721Y-33723958D01*
X16361894Y-33689209D01*
X16309938Y-33640218D01*
X16244640Y-33576787D01*
X16165786Y-33498719D01*
X16141630Y-33474591D01*
X16059655Y-33392016D01*
X15991843Y-33322498D01*
X15938335Y-33266188D01*
X15899269Y-33223237D01*
X15874786Y-33193795D01*
X15865026Y-33178012D01*
X15864840Y-33176777D01*
X15870430Y-33163824D01*
X15886337Y-33136221D01*
X15911262Y-33095990D01*
X15943906Y-33045153D01*
X15982972Y-32985734D01*
X16027161Y-32919755D01*
X16073120Y-32852236D01*
X16121001Y-32781871D01*
X16165004Y-32716129D01*
X16203830Y-32657034D01*
X16236183Y-32606607D01*
X16260762Y-32566871D01*
X16276270Y-32539847D01*
X16281419Y-32527750D01*
X16277670Y-32512136D01*
X16267185Y-32480727D01*
X16251122Y-32436420D01*
X16230640Y-32382112D01*
X16206899Y-32320700D01*
X16181058Y-32255081D01*
X16154277Y-32188151D01*
X16127713Y-32122806D01*
X16102528Y-32061944D01*
X16079879Y-32008461D01*
X16060926Y-31965255D01*
X16046829Y-31935220D01*
X16038746Y-31921256D01*
X16038682Y-31921190D01*
X16025904Y-31914652D01*
X15997903Y-31906117D01*
X15953762Y-31895381D01*
X15892562Y-31882240D01*
X15813388Y-31866490D01*
X15715322Y-31847926D01*
X15681960Y-31841756D01*
X15580433Y-31823050D01*
X15497062Y-31807583D01*
X15430017Y-31794899D01*
X15377471Y-31784543D01*
X15337597Y-31776062D01*
X15308567Y-31769001D01*
X15288554Y-31762905D01*
X15275731Y-31757320D01*
X15268269Y-31751792D01*
X15264341Y-31745865D01*
X15262121Y-31739086D01*
X15261623Y-31737221D01*
X15260228Y-31722114D01*
X15258938Y-31689105D01*
X15257791Y-31640612D01*
X15256823Y-31579054D01*
X15256074Y-31506849D01*
X15255580Y-31426416D01*
X15255379Y-31340171D01*
X15255378Y-31337921D01*
X15255511Y-31233635D01*
X15256028Y-31148124D01*
X15256977Y-31079849D01*
X15258409Y-31027269D01*
X15260371Y-30988843D01*
X15262913Y-30963030D01*
X15266085Y-30948289D01*
X15267940Y-30944566D01*
X15277100Y-30938862D01*
X15297785Y-30931745D01*
X15331335Y-30922917D01*
X15379094Y-30912079D01*
X15442401Y-30898932D01*
X15522600Y-30883178D01*
X15621031Y-30864518D01*
X15660454Y-30857168D01*
X15763986Y-30837744D01*
X15849048Y-30821331D01*
X15917208Y-30807578D01*
X15970037Y-30796132D01*
X16009103Y-30786642D01*
X16035975Y-30778754D01*
X16052223Y-30772118D01*
X16058219Y-30767922D01*
X16067278Y-30753318D01*
X16082588Y-30722954D01*
X16102881Y-30679795D01*
X16126890Y-30626808D01*
X16153344Y-30566960D01*
X16180977Y-30503215D01*
X16208521Y-30438541D01*
X16234706Y-30375904D01*
X16258265Y-30318269D01*
X16277930Y-30268604D01*
X16292431Y-30229873D01*
X16300502Y-30205043D01*
X16301740Y-30198376D01*
X16296097Y-30184887D01*
X16279973Y-30156631D01*
X16254563Y-30115468D01*
X16221061Y-30063263D01*
X16180662Y-30001878D01*
X16134560Y-29933176D01*
X16086754Y-29863096D01*
X16037856Y-29791517D01*
X15992601Y-29724425D01*
X15952304Y-29663832D01*
X15918280Y-29611754D01*
X15891845Y-29570204D01*
X15874314Y-29541197D01*
X15867001Y-29526746D01*
X15866923Y-29526418D01*
X15867477Y-29518471D01*
X15872695Y-29507196D01*
X15883803Y-29491239D01*
X15902030Y-29469244D01*
X15928601Y-29439853D01*
X15964745Y-29401713D01*
X16011687Y-29353466D01*
X16070655Y-29293757D01*
X16142876Y-29221231D01*
X16145388Y-29218715D01*
X16221713Y-29142771D01*
X16288068Y-29077772D01*
X16343733Y-29024394D01*
X16387984Y-28983314D01*
X16420099Y-28955206D01*
X16439356Y-28940749D01*
X16444383Y-28938892D01*
X16456055Y-28945378D01*
X16482485Y-28962140D01*
X16521728Y-28987879D01*
X16571838Y-29021297D01*
X16630873Y-29061098D01*
X16696886Y-29105983D01*
X16767933Y-29154654D01*
X16774583Y-29159228D01*
X16846474Y-29208481D01*
X16913937Y-29254304D01*
X16974952Y-29295355D01*
X17027495Y-29330290D01*
X17069546Y-29357764D01*
X17099081Y-29376435D01*
X17114080Y-29384958D01*
X17114520Y-29385135D01*
X17124873Y-29386889D01*
X17140263Y-29385275D01*
X17162807Y-29379567D01*
X17194619Y-29369041D01*
X17237817Y-29352974D01*
X17294518Y-29330641D01*
X17366837Y-29301317D01*
X17404080Y-29286042D01*
X17473131Y-29257657D01*
X17536342Y-29231678D01*
X17591186Y-29209144D01*
X17635138Y-29191092D01*
X17665672Y-29178561D01*
X17680261Y-29172586D01*
X17680847Y-29172348D01*
X17685939Y-29169129D01*
X17690858Y-29162589D01*
X17695999Y-29150965D01*
X17701761Y-29132497D01*
X17708539Y-29105424D01*
X17716730Y-29067984D01*
X17726731Y-29018417D01*
X17738940Y-28954960D01*
X17753752Y-28875853D01*
X17771565Y-28779335D01*
X17781097Y-28727400D01*
X17800806Y-28621346D01*
X17817582Y-28534326D01*
X17831655Y-28465300D01*
X17843252Y-28413228D01*
X17852602Y-28377071D01*
X17859934Y-28355790D01*
X17864278Y-28348940D01*
X17878766Y-28345354D01*
X17910642Y-28342305D01*
X17957202Y-28339790D01*
X18015746Y-28337805D01*
X18083571Y-28336347D01*
X18157977Y-28335413D01*
X18236261Y-28335000D01*
X18315723Y-28335104D01*
G37*
X18315723Y-28335104D02*
X18393659Y-28335724D01*
X18467369Y-28336854D01*
X18534151Y-28338493D01*
X18591303Y-28340637D01*
X18636124Y-28343282D01*
X18665912Y-28346427D01*
X18677841Y-28349891D01*
X18682150Y-28362632D01*
X18689596Y-28393127D01*
X18699715Y-28439132D01*
X18712042Y-28498403D01*
X18726112Y-28568697D01*
X18741463Y-28647768D01*
X18757628Y-28733373D01*
X18761413Y-28753751D01*
X18782404Y-28865654D01*
X18800397Y-28958310D01*
X18815572Y-29032541D01*
X18828109Y-29089170D01*
X18838188Y-29129020D01*
X18845989Y-29152913D01*
X18850387Y-29160792D01*
X18863482Y-29168491D01*
X18892491Y-29182423D01*
X18934430Y-29201347D01*
X18986319Y-29224021D01*
X19045174Y-29249206D01*
X19108014Y-29275660D01*
X19171856Y-29302142D01*
X19233719Y-29327412D01*
X19290620Y-29350228D01*
X19339578Y-29369351D01*
X19377609Y-29383539D01*
X19401733Y-29391551D01*
X19408177Y-29392880D01*
X19419375Y-29387304D01*
X19445416Y-29371395D01*
X19484432Y-29346383D01*
X19534555Y-29313495D01*
X19593918Y-29273962D01*
X19660653Y-29229011D01*
X19732892Y-29179871D01*
X19756707Y-29163571D01*
X19852646Y-29098198D01*
X19932662Y-29044530D01*
X19997229Y-29002267D01*
X20046818Y-28971110D01*
X20081904Y-28950758D01*
X20102957Y-28940913D01*
X20109287Y-28939987D01*
X20121117Y-28948541D01*
X20144901Y-28969617D01*
X20178747Y-29001308D01*
X20220759Y-29041705D01*
X20269046Y-29088903D01*
X20321712Y-29140992D01*
X20376865Y-29196066D01*
X20432610Y-29252218D01*
X20487055Y-29307540D01*
X20538305Y-29360125D01*
X20584467Y-29408065D01*
X20623648Y-29449452D01*
X20653953Y-29482380D01*
X20673490Y-29504942D01*
X20680364Y-29515225D01*
X20674705Y-29526644D01*
X20658710Y-29552851D01*
X20633629Y-29591946D01*
X20600717Y-29642025D01*
X20561224Y-29701187D01*
X20516404Y-29767530D01*
X20467508Y-29839151D01*
X20456844Y-29854678D01*
X20407232Y-29927276D01*
X20361452Y-29995112D01*
X20320757Y-30056268D01*
X20286400Y-30108822D01*
X20259633Y-30150854D01*
X20241710Y-30180444D01*
X20233883Y-30195670D01*
X20233640Y-30196846D01*
X20237596Y-30211067D01*
X20248635Y-30240925D01*
X20265511Y-30283523D01*
X20286979Y-30335962D01*
X20311794Y-30395345D01*
X20338711Y-30458773D01*
X20366484Y-30523349D01*
X20393869Y-30586175D01*
X20419619Y-30644353D01*
X20442490Y-30694985D01*
X20461237Y-30735173D01*
X20474613Y-30762019D01*
X20480890Y-30772244D01*
X20493917Y-30777304D01*
X20524908Y-30785461D01*
X20571813Y-30796276D01*
X20632585Y-30809310D01*
X20705178Y-30824122D01*
X20787543Y-30840274D01*
X20873745Y-30856601D01*
X20959268Y-30872762D01*
X21038758Y-30888213D01*
X21109935Y-30902479D01*
X21170521Y-30915085D01*
X21218237Y-30925555D01*
X21250805Y-30933415D01*
X21265945Y-30938188D01*
X21266504Y-30938548D01*
X21270115Y-30951456D01*
X21273230Y-30981977D01*
X21275847Y-31027409D01*
X21277962Y-31085050D01*
X21279572Y-31152199D01*
X21280675Y-31226155D01*
X21281266Y-31304216D01*
X21281344Y-31383680D01*
X21280905Y-31461846D01*
X21279946Y-31536013D01*
X21278464Y-31603479D01*
X21276457Y-31661542D01*
X21273920Y-31707501D01*
X21270851Y-31738654D01*
X21267420Y-31752102D01*
X21256738Y-31758038D01*
X21231996Y-31765841D01*
X21192158Y-31775739D01*
X21136191Y-31787959D01*
X21063061Y-31802729D01*
X20971732Y-31820278D01*
X20883880Y-31836654D01*
X20799392Y-31852428D01*
X20721027Y-31867421D01*
X20651078Y-31881166D01*
X20591838Y-31893198D01*
X20545602Y-31903051D01*
X20514661Y-31910257D01*
X20501309Y-31914352D01*
X20501142Y-31914468D01*
X20494521Y-31925974D01*
X20481714Y-31953642D01*
X20463846Y-31994675D01*
X20442044Y-32046276D01*
X20417434Y-32105648D01*
X20391142Y-32169994D01*
X20364294Y-32236518D01*
X20338016Y-32302423D01*
X20313434Y-32364912D01*
X20291674Y-32421187D01*
X20273862Y-32468452D01*
X20261124Y-32503911D01*
X20254586Y-32524766D01*
X20253960Y-32528421D01*
X20259538Y-32540311D01*
X20275411Y-32566910D01*
X20300289Y-32606234D01*
X20332881Y-32656299D01*
X20371894Y-32715121D01*
X20416038Y-32780717D01*
X20463015Y-32849635D01*
X20511119Y-32919952D01*
X20555635Y-32985366D01*
X20595235Y-33043896D01*
X20628588Y-33093564D01*
X20654366Y-33132389D01*
X20671239Y-33158393D01*
X20677847Y-33169512D01*
X20672354Y-33180260D01*
X20654010Y-33203136D01*
X20624687Y-33236267D01*
X20586259Y-33277776D01*
X20540597Y-33325790D01*
X20489574Y-33378432D01*
X20435063Y-33433828D01*
X20378937Y-33490103D01*
X20323068Y-33545383D01*
X20269329Y-33597792D01*
X20219594Y-33645454D01*
X20175733Y-33686497D01*
X20139621Y-33719043D01*
X20113130Y-33741220D01*
X20098132Y-33751150D01*
X20096548Y-33751505D01*
X20082819Y-33745911D01*
X20055001Y-33730190D01*
X20015613Y-33705926D01*
X19967174Y-33674700D01*
X19912203Y-33638096D01*
X19867880Y-33607842D01*
X19803583Y-33563587D01*
X19738512Y-33518965D01*
X19676563Y-33476631D01*
X19621628Y-33439247D01*
X19577604Y-33409470D01*
X19561231Y-33398486D01*
X19462863Y-33332781D01*
X19310143Y-33412610D01*
X19253680Y-33441861D01*
X19212349Y-33462428D01*
X19183440Y-33475355D01*
X19164244Y-33481685D01*
X19152052Y-33482463D01*
X19144156Y-33478732D01*
X19142518Y-33477200D01*
X19135910Y-33465105D01*
X19122463Y-33436064D01*
X19102956Y-33391959D01*
X19078167Y-33334670D01*
X19048872Y-33266079D01*
X19015851Y-33188067D01*
X18979881Y-33102514D01*
X18941740Y-33011303D01*
X18902206Y-32916313D01*
X18862057Y-32819427D01*
X18822071Y-32722525D01*
X18783026Y-32627488D01*
X18745699Y-32536197D01*
X18710870Y-32450534D01*
X18679314Y-32372380D01*
X18651812Y-32303616D01*
X18629140Y-32246122D01*
X18612076Y-32201780D01*
X18601399Y-32172471D01*
X18597880Y-32160230D01*
X18604162Y-32145377D01*
X18624230Y-32125671D01*
X18659913Y-32099470D01*
X18681700Y-32085028D01*
X18722808Y-32055560D01*
X18771389Y-32016430D01*
X18821142Y-31972917D01*
X18862571Y-31933511D01*
X18905191Y-31889863D01*
X18936858Y-31854211D01*
X18961699Y-31820925D01*
X18983838Y-31784377D01*
X19007400Y-31738939D01*
X19011965Y-31729680D01*
X19045781Y-31657197D01*
X19069896Y-31595081D01*
X19085850Y-31536770D01*
X19095182Y-31475705D01*
X19099434Y-31405322D01*
X19100195Y-31353760D01*
X19099773Y-31291118D01*
X19097582Y-31242816D01*
X19093001Y-31202903D01*
X19085406Y-31165431D01*
X19077350Y-31135320D01*
X19031561Y-31011061D01*
X18969239Y-30897533D01*
X18891699Y-30796025D01*
X18800250Y-30707824D01*
X18696207Y-30634219D01*
X18580879Y-30576499D01*
X18470880Y-30539810D01*
X18389813Y-30524782D01*
X18298319Y-30518009D01*
X18204331Y-30519485D01*
X18115783Y-30529205D01*
X18064480Y-30540054D01*
X17944463Y-30581647D01*
X17834035Y-30639393D01*
X17734410Y-30711527D01*
X17646805Y-30796287D01*
X17572436Y-30891905D01*
X17512519Y-30996619D01*
X17468271Y-31108663D01*
X17440908Y-31226273D01*
X17431645Y-31347683D01*
X17438368Y-31448524D01*
X17463661Y-31575482D01*
X17504929Y-31691821D01*
X17562965Y-31798795D01*
X17638560Y-31897657D01*
X17732505Y-31989660D01*
X17825720Y-32062235D01*
X17866543Y-32091707D01*
X17901316Y-32117868D01*
X17926623Y-32138072D01*
X17939049Y-32149675D01*
X17939516Y-32150370D01*
X17940888Y-32152939D01*
X17941681Y-32156156D01*
X17941408Y-32161246D01*
X17939585Y-32169433D01*
X17935726Y-32181941D01*
X17929346Y-32199997D01*
X17919960Y-32224823D01*
X17907083Y-32257645D01*
X17890228Y-32299688D01*
X17868911Y-32352176D01*
X17842646Y-32416333D01*
X17810948Y-32493385D01*
X17773332Y-32584555D01*
X17729312Y-32691069D01*
X17678403Y-32814151D01*
X17632119Y-32926024D01*
X17576854Y-33059038D01*
X17528839Y-33173388D01*
X17487952Y-33269350D01*
X17454072Y-33347198D01*
X17427079Y-33407204D01*
X17406852Y-33449644D01*
X17393271Y-33474791D01*
X17386649Y-33482858D01*
X17370795Y-33480260D01*
X17340006Y-33468298D01*
X17296769Y-33448069D01*
X17243568Y-33420668D01*
X17234249Y-33415665D01*
X17185425Y-33390052D01*
X17141480Y-33368364D01*
X17106139Y-33352338D01*
X17083124Y-33343708D01*
X17077765Y-33342701D01*
X17064625Y-33348272D01*
X17036876Y-33364167D01*
X16996570Y-33389073D01*
X16945755Y-33421676D01*
X16886483Y-33460665D01*
X16820802Y-33504726D01*
X16758752Y-33547050D01*
X16689101Y-33594517D01*
X16624044Y-33638085D01*
X16565628Y-33676439D01*
X16515903Y-33708266D01*
X16476918Y-33732253D01*
X16450724Y-33747084D01*
X16439837Y-33751520D01*
X16426630Y-33744662D01*
X16400721Y-33723958D01*
X16361894Y-33689209D01*
X16309938Y-33640218D01*
X16244640Y-33576787D01*
X16165786Y-33498719D01*
X16141630Y-33474591D01*
X16059655Y-33392016D01*
X15991843Y-33322498D01*
X15938335Y-33266188D01*
X15899269Y-33223237D01*
X15874786Y-33193795D01*
X15865026Y-33178012D01*
X15864840Y-33176777D01*
X15870430Y-33163824D01*
X15886337Y-33136221D01*
X15911262Y-33095990D01*
X15943906Y-33045153D01*
X15982972Y-32985734D01*
X16027161Y-32919755D01*
X16073120Y-32852236D01*
X16121001Y-32781871D01*
X16165004Y-32716129D01*
X16203830Y-32657034D01*
X16236183Y-32606607D01*
X16260762Y-32566871D01*
X16276270Y-32539847D01*
X16281419Y-32527750D01*
X16277670Y-32512136D01*
X16267185Y-32480727D01*
X16251122Y-32436420D01*
X16230640Y-32382112D01*
X16206899Y-32320700D01*
X16181058Y-32255081D01*
X16154277Y-32188151D01*
X16127713Y-32122806D01*
X16102528Y-32061944D01*
X16079879Y-32008461D01*
X16060926Y-31965255D01*
X16046829Y-31935220D01*
X16038746Y-31921256D01*
X16038682Y-31921190D01*
X16025904Y-31914652D01*
X15997903Y-31906117D01*
X15953762Y-31895381D01*
X15892562Y-31882240D01*
X15813388Y-31866490D01*
X15715322Y-31847926D01*
X15681960Y-31841756D01*
X15580433Y-31823050D01*
X15497062Y-31807583D01*
X15430017Y-31794899D01*
X15377471Y-31784543D01*
X15337597Y-31776062D01*
X15308567Y-31769001D01*
X15288554Y-31762905D01*
X15275731Y-31757320D01*
X15268269Y-31751792D01*
X15264341Y-31745865D01*
X15262121Y-31739086D01*
X15261623Y-31737221D01*
X15260228Y-31722114D01*
X15258938Y-31689105D01*
X15257791Y-31640612D01*
X15256823Y-31579054D01*
X15256074Y-31506849D01*
X15255580Y-31426416D01*
X15255379Y-31340171D01*
X15255378Y-31337921D01*
X15255511Y-31233635D01*
X15256028Y-31148124D01*
X15256977Y-31079849D01*
X15258409Y-31027269D01*
X15260371Y-30988843D01*
X15262913Y-30963030D01*
X15266085Y-30948289D01*
X15267940Y-30944566D01*
X15277100Y-30938862D01*
X15297785Y-30931745D01*
X15331335Y-30922917D01*
X15379094Y-30912079D01*
X15442401Y-30898932D01*
X15522600Y-30883178D01*
X15621031Y-30864518D01*
X15660454Y-30857168D01*
X15763986Y-30837744D01*
X15849048Y-30821331D01*
X15917208Y-30807578D01*
X15970037Y-30796132D01*
X16009103Y-30786642D01*
X16035975Y-30778754D01*
X16052223Y-30772118D01*
X16058219Y-30767922D01*
X16067278Y-30753318D01*
X16082588Y-30722954D01*
X16102881Y-30679795D01*
X16126890Y-30626808D01*
X16153344Y-30566960D01*
X16180977Y-30503215D01*
X16208521Y-30438541D01*
X16234706Y-30375904D01*
X16258265Y-30318269D01*
X16277930Y-30268604D01*
X16292431Y-30229873D01*
X16300502Y-30205043D01*
X16301740Y-30198376D01*
X16296097Y-30184887D01*
X16279973Y-30156631D01*
X16254563Y-30115468D01*
X16221061Y-30063263D01*
X16180662Y-30001878D01*
X16134560Y-29933176D01*
X16086754Y-29863096D01*
X16037856Y-29791517D01*
X15992601Y-29724425D01*
X15952304Y-29663832D01*
X15918280Y-29611754D01*
X15891845Y-29570204D01*
X15874314Y-29541197D01*
X15867001Y-29526746D01*
X15866923Y-29526418D01*
X15867477Y-29518471D01*
X15872695Y-29507196D01*
X15883803Y-29491239D01*
X15902030Y-29469244D01*
X15928601Y-29439853D01*
X15964745Y-29401713D01*
X16011687Y-29353466D01*
X16070655Y-29293757D01*
X16142876Y-29221231D01*
X16145388Y-29218715D01*
X16221713Y-29142771D01*
X16288068Y-29077772D01*
X16343733Y-29024394D01*
X16387984Y-28983314D01*
X16420099Y-28955206D01*
X16439356Y-28940749D01*
X16444383Y-28938892D01*
X16456055Y-28945378D01*
X16482485Y-28962140D01*
X16521728Y-28987879D01*
X16571838Y-29021297D01*
X16630873Y-29061098D01*
X16696886Y-29105983D01*
X16767933Y-29154654D01*
X16774583Y-29159228D01*
X16846474Y-29208481D01*
X16913937Y-29254304D01*
X16974952Y-29295355D01*
X17027495Y-29330290D01*
X17069546Y-29357764D01*
X17099081Y-29376435D01*
X17114080Y-29384958D01*
X17114520Y-29385135D01*
X17124873Y-29386889D01*
X17140263Y-29385275D01*
X17162807Y-29379567D01*
X17194619Y-29369041D01*
X17237817Y-29352974D01*
X17294518Y-29330641D01*
X17366837Y-29301317D01*
X17404080Y-29286042D01*
X17473131Y-29257657D01*
X17536342Y-29231678D01*
X17591186Y-29209144D01*
X17635138Y-29191092D01*
X17665672Y-29178561D01*
X17680261Y-29172586D01*
X17680847Y-29172348D01*
X17685939Y-29169129D01*
X17690858Y-29162589D01*
X17695999Y-29150965D01*
X17701761Y-29132497D01*
X17708539Y-29105424D01*
X17716730Y-29067984D01*
X17726731Y-29018417D01*
X17738940Y-28954960D01*
X17753752Y-28875853D01*
X17771565Y-28779335D01*
X17781097Y-28727400D01*
X17800806Y-28621346D01*
X17817582Y-28534326D01*
X17831655Y-28465300D01*
X17843252Y-28413228D01*
X17852602Y-28377071D01*
X17859934Y-28355790D01*
X17864278Y-28348940D01*
X17878766Y-28345354D01*
X17910642Y-28342305D01*
X17957202Y-28339790D01*
X18015746Y-28337805D01*
X18083571Y-28336347D01*
X18157977Y-28335413D01*
X18236261Y-28335000D01*
X18315723Y-28335104D01*
%TO.C,U1*%
D14*
X42926095Y-33335980D02*
X42926095Y-34145504D01*
X42973714Y-34240742D01*
X43021333Y-34288361D01*
X43116571Y-34335980D01*
X43307047Y-34335980D01*
X43402285Y-34288361D01*
X43449904Y-34240742D01*
X43497523Y-34145504D01*
X43497523Y-33335980D01*
X44497523Y-34335980D02*
X43926095Y-34335980D01*
X44211809Y-34335980D02*
X44211809Y-33335980D01*
X44116571Y-33478838D01*
X44021333Y-33574076D01*
X43926095Y-33621695D01*
%TO.C,Pi 17-30*%
X46861838Y-15140380D02*
X46861838Y-14140380D01*
X47242790Y-14140380D01*
X47338028Y-14188000D01*
X47385647Y-14235619D01*
X47433266Y-14330857D01*
X47433266Y-14473714D01*
X47385647Y-14568952D01*
X47338028Y-14616571D01*
X47242790Y-14664190D01*
X46861838Y-14664190D01*
X47861838Y-15140380D02*
X47861838Y-14473714D01*
X47861838Y-14140380D02*
X47814219Y-14188000D01*
X47861838Y-14235619D01*
X47909457Y-14188000D01*
X47861838Y-14140380D01*
X47861838Y-14235619D01*
X49623742Y-15140380D02*
X49052314Y-15140380D01*
X49338028Y-15140380D02*
X49338028Y-14140380D01*
X49242790Y-14283238D01*
X49147552Y-14378476D01*
X49052314Y-14426095D01*
X49957076Y-14140380D02*
X50623742Y-14140380D01*
X50195171Y-15140380D01*
X51004695Y-14759428D02*
X51766600Y-14759428D01*
X52147552Y-14140380D02*
X52766600Y-14140380D01*
X52433266Y-14521333D01*
X52576123Y-14521333D01*
X52671361Y-14568952D01*
X52718980Y-14616571D01*
X52766600Y-14711809D01*
X52766600Y-14949904D01*
X52718980Y-15045142D01*
X52671361Y-15092761D01*
X52576123Y-15140380D01*
X52290409Y-15140380D01*
X52195171Y-15092761D01*
X52147552Y-15045142D01*
X53385647Y-14140380D02*
X53480885Y-14140380D01*
X53576123Y-14188000D01*
X53623742Y-14235619D01*
X53671361Y-14330857D01*
X53718980Y-14521333D01*
X53718980Y-14759428D01*
X53671361Y-14949904D01*
X53623742Y-15045142D01*
X53576123Y-15092761D01*
X53480885Y-15140380D01*
X53385647Y-15140380D01*
X53290409Y-15092761D01*
X53242790Y-15045142D01*
X53195171Y-14949904D01*
X53147552Y-14759428D01*
X53147552Y-14521333D01*
X53195171Y-14330857D01*
X53242790Y-14235619D01*
X53290409Y-14188000D01*
X53385647Y-14140380D01*
%TO.C,SMA*%
D10*
X16748285Y-24839561D02*
X16891142Y-24887180D01*
X17129238Y-24887180D01*
X17224476Y-24839561D01*
X17272095Y-24791942D01*
X17319714Y-24696704D01*
X17319714Y-24601466D01*
X17272095Y-24506228D01*
X17224476Y-24458609D01*
X17129238Y-24410990D01*
X16938761Y-24363371D01*
X16843523Y-24315752D01*
X16795904Y-24268133D01*
X16748285Y-24172895D01*
X16748285Y-24077657D01*
X16795904Y-23982419D01*
X16843523Y-23934800D01*
X16938761Y-23887180D01*
X17176857Y-23887180D01*
X17319714Y-23934800D01*
X17748285Y-24887180D02*
X17748285Y-23887180D01*
X18081619Y-24601466D01*
X18414952Y-23887180D01*
X18414952Y-24887180D01*
X18843523Y-24601466D02*
X19319714Y-24601466D01*
X18748285Y-24887180D02*
X19081619Y-23887180D01*
X19414952Y-24887180D01*
%TD*%
M02*
