M48
; DRILL file {KiCad (5.1.9-0-10_14)} date Tuesday, April 20, 2021 at 09:20:55 PM
; FORMAT={-:-/ absolute / inch / decimal}
; #@! TF.CreationDate,2021-04-20T21:20:55+01:00
; #@! TF.GenerationSoftware,Kicad,Pcbnew,(5.1.9-0-10_14)
; #@! TF.FileFunction,Plated,1,2,PTH
FMAT,2
INCH
T1C0.0157
T2C0.0394
T3C0.0630
%
G90
G05
T1
X0.615Y-0.76
X0.615Y-1.031
X0.617Y-1.202
X0.715Y-0.601
X0.823Y-1.024
X0.826Y-1.206
X0.898Y-0.823
X0.9Y-0.719
X1.1142Y-0.7678
X1.232Y-0.853
X1.233Y-1.075
X1.285Y-1.295
X1.38Y-0.686
X1.4902Y-0.7776
X1.5394Y-0.8603
X1.576Y-0.688
X1.576Y-1.072
X1.5866Y-1.2933
X1.829Y-1.218
X1.83Y-0.948
X1.8307Y-0.7087
X1.8327Y-0.8504
X1.8327Y-1.0926
X1.834Y-0.773
T2
X1.929Y-0.67
X1.929Y-0.77
X1.929Y-0.87
X1.929Y-0.97
X1.929Y-1.07
X1.929Y-1.17
X1.929Y-1.27
X2.029Y-0.67
X2.029Y-0.77
X2.029Y-0.87
X2.029Y-0.97
X2.029Y-1.07
X2.029Y-1.17
X2.029Y-1.27
T3
X0.615Y-0.668
X0.615Y-0.868
X0.715Y-0.768
X0.815Y-0.668
X0.815Y-0.868
T0
M30
